<?xml version="1.0" encoding="UTF-8"?>
<svg id="_レイヤー_1" data-name="レイヤー 1" xmlns="http://www.w3.org/2000/svg" xmlns:xlink="http://www.w3.org/1999/xlink" viewBox="0 0 1575.65 1264.32">
  <defs>
    <style>
      .cls-1, .cls-2, .cls-3 {
        fill: none;
      }

      .cls-2 {
        stroke: #f18e38;
      }

      .cls-2, .cls-3 {
        stroke-linecap: round;
        stroke-linejoin: round;
        stroke-width: .53px;
      }

      .cls-3 {
        stroke: #fdd23e;
      }

      .cls-4 {
        clip-path: url(#clippath-10);
      }

      .cls-5 {
        fill: #fffde5;
      }

      .cls-6 {
        clip-path: url(#clippath-1);
      }

      .cls-7 {
        clip-path: url(#clippath-3);
      }

      .cls-8 {
        clip-path: url(#clippath-4);
      }

      .cls-9 {
        clip-path: url(#clippath-2);
      }

      .cls-10 {
        clip-path: url(#clippath-7);
      }

      .cls-11 {
        clip-path: url(#clippath-6);
      }

      .cls-12 {
        clip-path: url(#clippath-9);
      }

      .cls-13 {
        clip-path: url(#clippath-8);
      }

      .cls-14 {
        clip-path: url(#clippath-5);
      }

      .cls-15 {
        fill: #bc4a1f;
      }

      .cls-16 {
        fill: #933523;
      }

      .cls-17 {
        fill: #fdd23e;
      }

      .cls-18 {
        fill: #9166a9;
      }

      .cls-19 {
        clip-path: url(#clippath);
      }
    </style>
    <clipPath id="clippath">
      <rect class="cls-1" x="-2846.39" y="-3157.73" width="3401.57" height="5442.52" transform="translate(-709.14 -1582.08) rotate(-90)"/>
    </clipPath>
    <clipPath id="clippath-1">
      <ellipse class="cls-1" cx="1527.73" cy="-797.4" rx="763.36" ry="596.37"/>
    </clipPath>
    <clipPath id="clippath-2">
      <rect class="cls-1" x="589.58" y="-449.74" width="330.52" height="449.74"/>
    </clipPath>
    <clipPath id="clippath-3">
      <rect class="cls-1" x="920.1" y="-449.74" width="330.52" height="449.74"/>
    </clipPath>
    <clipPath id="clippath-4">
      <rect class="cls-1" x="1250.62" y="-449.74" width="330.52" height="449.74"/>
    </clipPath>
    <clipPath id="clippath-5">
      <rect class="cls-1" x="1581.15" y="-449.74" width="330.52" height="449.74"/>
    </clipPath>
    <clipPath id="clippath-6">
      <path class="cls-1" d="M307.33,834.4c340.07-265.68,891.43-265.68,1231.5,0,340.07,265.68,340.07,696.43,0,962.11-340.07,265.68-891.43,265.68-1231.5,0-340.07-265.68-340.07-696.43,0-962.11Z"/>
    </clipPath>
    <clipPath id="clippath-7">
      <rect class="cls-1" x="-642.65" y="-5" width="1847.35" height="1250.81"/>
    </clipPath>
    <clipPath id="clippath-8">
      <rect class="cls-1" x="1204.69" y="-5" width="1847.35" height="1250.81"/>
    </clipPath>
    <clipPath id="clippath-9">
      <rect class="cls-1" x="-642.65" y="1245.81" width="1847.35" height="1250.81"/>
    </clipPath>
    <clipPath id="clippath-10">
      <rect class="cls-1" x="1204.69" y="1245.81" width="1847.35" height="1250.81"/>
    </clipPath>
  </defs>
  <g class="cls-19">
    <g class="cls-6">
      <g class="cls-9">
        <g>
          <line class="cls-3" x1="920.1" y1="0" x2="1250.69" y2="0"/>
          <polygon class="cls-2" points="1085.4 -74.85 920.1 0 1085.4 74.85 1250.69 0 1085.4 -74.85"/>
        </g>
        <g>
          <g>
            <polygon class="cls-2" points="1085.33 74.85 1085.33 224.54 920.04 149.69 920.04 0 1085.33 74.85"/>
            <polygon class="cls-3" points="1085.33 -74.85 1085.33 -224.54 920.04 -149.69 920.04 0 1085.33 -74.85"/>
            <polyline class="cls-3" points="1085.33 224.54 920.04 0 1085.33 -224.54"/>
            <line class="cls-3" x1="1250.63" y1="0" x2="920.04" y2="0"/>
            <polygon class="cls-2" points="1085.33 74.85 1085.33 224.54 920.04 149.69 920.04 0 1085.33 74.85"/>
            <polygon class="cls-3" points="754.87 74.85 754.87 224.54 920.17 149.69 920.17 0 754.87 74.85"/>
            <polygon class="cls-2" points="754.87 -74.85 754.87 -224.54 920.17 -149.69 920.17 0 754.87 -74.85"/>
            <polyline class="cls-3" points="754.87 224.54 920.17 0 754.87 -224.54"/>
            <line class="cls-3" x1="589.58" y1="0" x2="920.17" y2="0"/>
            <polygon class="cls-2" points="754.87 -74.85 754.87 -224.54 920.17 -149.69 920.17 0 754.87 -74.85"/>
          </g>
          <polygon class="cls-2" points="1085.33 -74.85 1250.63 0 1085.33 74.85 920.04 0 1085.33 -74.85"/>
          <polygon class="cls-2" points="1085.33 -74.85 1250.63 0 1085.33 74.85 920.04 0 1085.33 -74.85"/>
          <polygon class="cls-2" points="754.88 -74.85 589.58 0 754.88 74.85 920.17 0 754.88 -74.85"/>
        </g>
        <g>
          <polygon class="cls-2" points="920.13 150.03 920.13 .33 1085.43 75.18 1085.43 224.87 920.13 150.03"/>
          <polyline class="cls-3" points="920.13 449.41 1085.43 224.87 920.13 .33"/>
          <polygon class="cls-2" points="920.13 150.03 920.13 .33 1085.43 75.18 1085.43 224.87 920.13 150.03"/>
        </g>
        <g>
          <g>
            <polygon class="cls-2" points="754.81 74.85 754.81 224.54 589.51 149.69 589.52 0 754.81 74.85"/>
            <polygon class="cls-3" points="754.81 -74.85 754.81 -224.54 589.51 -149.69 589.52 0 754.81 -74.85"/>
            <polyline class="cls-3" points="754.81 224.54 589.52 0 754.81 -224.54"/>
            <line class="cls-3" x1="920.1" y1="0" x2="589.52" y2="0"/>
            <polygon class="cls-2" points="754.81 74.85 754.81 224.54 589.51 149.69 589.52 0 754.81 74.85"/>
            <polygon class="cls-3" points="424.35 74.85 424.35 224.54 589.65 149.69 589.64 0 424.35 74.85"/>
            <polygon class="cls-2" points="424.35 -74.85 424.35 -224.54 589.65 -149.69 589.64 0 424.35 -74.85"/>
            <polyline class="cls-3" points="424.35 224.54 589.64 0 424.35 -224.54"/>
            <line class="cls-3" x1="259.06" y1="0" x2="589.64" y2="0"/>
            <polygon class="cls-2" points="424.35 -74.85 424.35 -224.54 589.65 -149.69 589.64 0 424.35 -74.85"/>
          </g>
          <polygon class="cls-2" points="754.81 -74.85 920.1 0 754.81 74.85 589.51 0 754.81 -74.85"/>
          <polygon class="cls-2" points="754.81 -74.85 920.1 0 754.81 74.85 589.51 0 754.81 -74.85"/>
          <polygon class="cls-2" points="424.35 -74.85 259.06 0 424.35 74.85 589.65 0 424.35 -74.85"/>
        </g>
        <g>
          <polygon class="cls-3" points="920.07 150.03 920.07 .33 754.77 75.18 754.78 224.87 920.07 150.03"/>
          <polyline class="cls-3" points="920.07 449.41 754.78 224.87 920.07 .33"/>
          <polygon class="cls-2" points="589.61 150.03 589.61 .33 754.91 75.18 754.9 224.87 589.61 150.03"/>
          <polyline class="cls-3" points="589.61 449.41 754.9 224.87 589.61 .33"/>
          <polygon class="cls-2" points="589.61 150.03 589.61 .33 754.91 75.18 754.9 224.87 589.61 150.03"/>
        </g>
        <g>
          <line class="cls-3" x1="589.58" y1="0" x2="258.99" y2="0"/>
          <polygon class="cls-2" points="424.28 -74.85 589.58 0 424.28 74.85 258.99 0 424.28 -74.85"/>
          <polygon class="cls-2" points="424.28 -74.85 589.58 0 424.28 74.85 258.99 0 424.28 -74.85"/>
        </g>
        <g>
          <polygon class="cls-3" points="589.55 150.03 589.55 .33 424.25 75.18 424.25 224.87 589.55 150.03"/>
          <polyline class="cls-3" points="589.55 449.41 424.25 224.87 589.55 .33"/>
        </g>
      </g>
      <g class="cls-7">
        <g>
          <line class="cls-3" x1="1250.63" y1="0" x2="1581.21" y2="0"/>
          <polygon class="cls-2" points="1415.92 -74.85 1250.63 0 1415.92 74.85 1581.21 0 1415.92 -74.85"/>
        </g>
        <g>
          <g>
            <polygon class="cls-2" points="1415.86 74.85 1415.86 224.54 1250.56 149.69 1250.56 0 1415.86 74.85"/>
            <polygon class="cls-3" points="1415.86 -74.85 1415.86 -224.54 1250.56 -149.69 1250.56 0 1415.86 -74.85"/>
            <polyline class="cls-3" points="1415.86 224.54 1250.56 0 1415.86 -224.54"/>
            <line class="cls-3" x1="1581.15" y1="0" x2="1250.56" y2="0"/>
            <polygon class="cls-2" points="1415.86 74.85 1415.86 224.54 1250.56 149.69 1250.56 0 1415.86 74.85"/>
            <polygon class="cls-3" points="1085.39 74.85 1085.39 224.54 1250.69 149.69 1250.69 0 1085.39 74.85"/>
            <polygon class="cls-2" points="1085.39 -74.85 1085.39 -224.54 1250.69 -149.69 1250.69 0 1085.39 -74.85"/>
            <polyline class="cls-3" points="1085.39 224.54 1250.69 0 1085.39 -224.54"/>
            <line class="cls-3" x1="920.1" y1="0" x2="1250.69" y2="0"/>
            <polygon class="cls-2" points="1085.39 -74.85 1085.39 -224.54 1250.69 -149.69 1250.69 0 1085.39 -74.85"/>
          </g>
          <polygon class="cls-2" points="1415.85 -74.85 1581.15 0 1415.85 74.85 1250.56 0 1415.85 -74.85"/>
          <polygon class="cls-2" points="1415.85 -74.85 1581.15 0 1415.85 74.85 1250.56 0 1415.85 -74.85"/>
          <polygon class="cls-2" points="1085.4 -74.85 920.1 0 1085.4 74.85 1250.69 0 1085.4 -74.85"/>
        </g>
        <g>
          <polygon class="cls-2" points="1250.66 150.03 1250.66 .33 1415.95 75.18 1415.95 224.87 1250.66 150.03"/>
          <polyline class="cls-3" points="1250.66 449.41 1415.95 224.87 1250.66 .33"/>
          <polygon class="cls-2" points="1250.66 150.03 1250.66 .33 1415.95 75.18 1415.95 224.87 1250.66 150.03"/>
        </g>
        <g>
          <g>
            <polygon class="cls-2" points="1085.33 74.85 1085.33 224.54 920.04 149.69 920.04 0 1085.33 74.85"/>
            <polygon class="cls-3" points="1085.33 -74.85 1085.33 -224.54 920.04 -149.69 920.04 0 1085.33 -74.85"/>
            <polyline class="cls-3" points="1085.33 224.54 920.04 0 1085.33 -224.54"/>
            <line class="cls-3" x1="1250.63" y1="0" x2="920.04" y2="0"/>
            <polygon class="cls-2" points="1085.33 74.85 1085.33 224.54 920.04 149.69 920.04 0 1085.33 74.85"/>
            <polygon class="cls-3" points="754.87 74.85 754.87 224.54 920.17 149.69 920.17 0 754.87 74.85"/>
            <polygon class="cls-2" points="754.87 -74.85 754.87 -224.54 920.17 -149.69 920.17 0 754.87 -74.85"/>
            <polyline class="cls-3" points="754.87 224.54 920.17 0 754.87 -224.54"/>
            <line class="cls-3" x1="589.58" y1="0" x2="920.17" y2="0"/>
            <polygon class="cls-2" points="754.87 -74.85 754.87 -224.54 920.17 -149.69 920.17 0 754.87 -74.85"/>
          </g>
          <polygon class="cls-2" points="1085.33 -74.85 1250.63 0 1085.33 74.85 920.04 0 1085.33 -74.85"/>
          <polygon class="cls-2" points="1085.33 -74.85 1250.63 0 1085.33 74.85 920.04 0 1085.33 -74.85"/>
          <polygon class="cls-2" points="754.88 -74.85 589.58 0 754.88 74.85 920.17 0 754.88 -74.85"/>
        </g>
        <g>
          <polygon class="cls-3" points="1250.59 150.03 1250.59 .33 1085.3 75.18 1085.3 224.87 1250.59 150.03"/>
          <polyline class="cls-3" points="1250.59 449.41 1085.3 224.87 1250.59 .33"/>
          <polygon class="cls-2" points="920.13 150.03 920.13 .33 1085.43 75.18 1085.43 224.87 920.13 150.03"/>
          <polyline class="cls-3" points="920.13 449.41 1085.43 224.87 920.13 .33"/>
          <polygon class="cls-2" points="920.13 150.03 920.13 .33 1085.43 75.18 1085.43 224.87 920.13 150.03"/>
        </g>
        <g>
          <line class="cls-3" x1="920.1" y1="0" x2="589.52" y2="0"/>
          <polygon class="cls-2" points="754.81 -74.85 920.1 0 754.81 74.85 589.51 0 754.81 -74.85"/>
          <polygon class="cls-2" points="754.81 -74.85 920.1 0 754.81 74.85 589.51 0 754.81 -74.85"/>
        </g>
        <g>
          <polygon class="cls-3" points="920.07 150.03 920.07 .33 754.77 75.18 754.78 224.87 920.07 150.03"/>
          <polyline class="cls-3" points="920.07 449.41 754.78 224.87 920.07 .33"/>
        </g>
      </g>
      <g class="cls-8">
        <g>
          <g>
            <polygon class="cls-3" points="1415.92 74.85 1415.92 224.54 1581.21 149.69 1581.21 0 1415.92 74.85"/>
            <polygon class="cls-2" points="1415.92 -74.85 1415.92 -224.54 1581.21 -149.69 1581.21 0 1415.92 -74.85"/>
            <polyline class="cls-3" points="1415.92 224.54 1581.21 0 1415.92 -224.54"/>
            <line class="cls-3" x1="1250.62" y1="0" x2="1581.21" y2="0"/>
            <polygon class="cls-2" points="1415.92 -74.85 1415.92 -224.54 1581.21 -149.69 1581.21 0 1415.92 -74.85"/>
          </g>
          <polygon class="cls-2" points="1415.92 -74.85 1250.62 0 1415.92 74.85 1581.21 0 1415.92 -74.85"/>
        </g>
        <g>
          <g>
            <polygon class="cls-2" points="1415.86 74.85 1415.86 224.54 1250.56 149.69 1250.56 0 1415.86 74.85"/>
            <polygon class="cls-3" points="1415.86 -74.85 1415.86 -224.54 1250.56 -149.69 1250.56 0 1415.86 -74.85"/>
            <polyline class="cls-3" points="1415.86 224.54 1250.56 0 1415.86 -224.54"/>
            <line class="cls-3" x1="1581.15" y1="0" x2="1250.56" y2="0"/>
            <polygon class="cls-2" points="1415.86 74.85 1415.86 224.54 1250.56 149.69 1250.56 0 1415.86 74.85"/>
            <polygon class="cls-3" points="1085.39 74.85 1085.39 224.54 1250.69 149.69 1250.69 0 1085.39 74.85"/>
            <polygon class="cls-2" points="1085.39 -74.85 1085.39 -224.54 1250.69 -149.69 1250.69 0 1085.39 -74.85"/>
            <polyline class="cls-3" points="1085.39 224.54 1250.69 0 1085.39 -224.54"/>
            <line class="cls-3" x1="920.1" y1="0" x2="1250.69" y2="0"/>
            <polygon class="cls-2" points="1085.39 -74.85 1085.39 -224.54 1250.69 -149.69 1250.69 0 1085.39 -74.85"/>
          </g>
          <polygon class="cls-2" points="1415.85 -74.85 1581.15 0 1415.85 74.85 1250.56 0 1415.85 -74.85"/>
          <polygon class="cls-2" points="1415.85 -74.85 1581.15 0 1415.85 74.85 1250.56 0 1415.85 -74.85"/>
          <polygon class="cls-2" points="1085.4 -74.85 920.1 0 1085.4 74.85 1250.69 0 1085.4 -74.85"/>
        </g>
        <g>
          <polygon class="cls-3" points="1581.12 150.03 1581.12 .33 1415.82 75.18 1415.82 224.87 1581.12 150.03"/>
          <polyline class="cls-3" points="1581.12 449.41 1415.82 224.87 1581.12 .33"/>
          <polygon class="cls-2" points="1250.66 150.03 1250.66 .33 1415.95 75.18 1415.95 224.87 1250.66 150.03"/>
          <polyline class="cls-3" points="1250.66 449.41 1415.95 224.87 1250.66 .33"/>
          <polygon class="cls-2" points="1250.66 150.03 1250.66 .33 1415.95 75.18 1415.95 224.87 1250.66 150.03"/>
        </g>
        <g>
          <line class="cls-3" x1="1250.62" y1="0" x2="920.04" y2="0"/>
          <polygon class="cls-2" points="1085.33 -74.85 1250.62 0 1085.33 74.85 920.04 0 1085.33 -74.85"/>
          <polygon class="cls-2" points="1085.33 -74.85 1250.62 0 1085.33 74.85 920.04 0 1085.33 -74.85"/>
        </g>
        <g>
          <polygon class="cls-3" points="1250.59 150.03 1250.59 .33 1085.3 75.18 1085.3 224.87 1250.59 150.03"/>
          <polyline class="cls-3" points="1250.59 449.41 1085.3 224.87 1250.59 .33"/>
        </g>
      </g>
      <g class="cls-14">
        <g>
          <g>
            <polygon class="cls-3" points="1415.92 74.85 1415.92 224.54 1581.21 149.69 1581.21 0 1415.92 74.85"/>
            <polygon class="cls-2" points="1415.92 -74.85 1415.92 -224.54 1581.21 -149.69 1581.21 0 1415.92 -74.85"/>
            <polyline class="cls-3" points="1415.92 224.54 1581.21 0 1415.92 -224.54"/>
            <line class="cls-3" x1="1250.62" y1="0" x2="1581.21" y2="0"/>
            <polygon class="cls-2" points="1415.92 -74.85 1415.92 -224.54 1581.21 -149.69 1581.21 0 1415.92 -74.85"/>
          </g>
          <polygon class="cls-2" points="1415.92 -74.85 1250.62 0 1415.92 74.85 1581.21 0 1415.92 -74.85"/>
        </g>
        <g>
          <line class="cls-3" x1="1581.15" y1="0" x2="1250.56" y2="0"/>
          <polygon class="cls-2" points="1415.85 -74.85 1581.15 0 1415.85 74.85 1250.56 0 1415.85 -74.85"/>
          <polygon class="cls-2" points="1415.85 -74.85 1581.15 0 1415.85 74.85 1250.56 0 1415.85 -74.85"/>
        </g>
        <g>
          <polygon class="cls-3" points="1581.12 150.03 1581.12 .33 1415.82 75.18 1415.82 224.87 1581.12 150.03"/>
          <polyline class="cls-3" points="1581.12 449.41 1415.82 224.87 1581.12 .33"/>
        </g>
      </g>
    </g>
    <g>
      <path class="cls-16" d="M1087.82,1186.75c340.07,265.68,891.43,265.68,1231.5,0,340.07-265.68,340.07-696.43,0-962.11-340.07-265.68-891.43-265.68-1231.5,0-340.07,265.68-340.07,696.43,0,962.11Z"/>
      <g>
        <path class="cls-5" d="M307.33,834.4c340.07-265.68,891.43-265.68,1231.5,0,340.07,265.68,340.07,696.43,0,962.11-340.07,265.68-891.43,265.68-1231.5,0-340.07-265.68-340.07-696.43,0-962.11Z"/>
        <g class="cls-11">
          <g class="cls-10">
            <g>
              <path class="cls-17" d="M1132.95,100.69c-21.46,16.76-31.19,39.16-29.41,61.1-28.08-1.39-56.75,6.21-78.21,22.98-21.46,16.76-31.19,39.16-29.41,61.1-28.08-1.39-56.75,6.21-78.21,22.98-39.62,30.95-39.62,81.14,0,112.1,21.46,16.76,50.13,24.37,78.21,22.98-1.78,21.94,7.95,44.33,29.41,61.1,21.46,16.76,50.13,24.37,78.21,22.98-1.78,21.93,7.95,44.33,29.41,61.1,39.62,30.96,103.86,30.96,143.49,0,21.46-16.76,31.19-39.16,29.41-61.1,28.08,1.39,56.75-6.21,78.21-22.98,21.46-16.76,31.19-39.16,29.41-61.1,28.08,1.39,56.75-6.21,78.21-22.98,39.62-30.96,39.62-81.14,0-112.1-21.46-16.76-50.13-24.37-78.21-22.98,1.78-21.94-7.95-44.34-29.41-61.1-21.46-16.76-50.13-24.37-78.21-22.98,1.78-21.94-7.95-44.33-29.41-61.1-39.62-30.95-103.86-30.95-143.49,0Z"/>
              <path class="cls-18" d="M1069.41-61.05c-21.46-16.76-50.13-24.37-78.21-22.98,1.78-21.94-7.95-44.33-29.41-61.1-21.46-16.76-50.13-24.37-78.21-22.98,1.78-21.94-7.95-44.33-29.41-61.1-39.62-30.95-103.86-30.95-143.49,0-21.46,16.76-31.19,39.16-29.41,61.1-28.08-1.39-56.75,6.21-78.21,22.98-21.46,16.76-31.19,39.16-29.41,61.1-28.08-1.39-56.75,6.21-78.21,22.98-39.62,30.95-39.62,81.14,0,112.1,21.46,16.76,50.13,24.37,78.21,22.98-1.78,21.94,7.95,44.33,29.41,61.1,21.46,16.76,50.13,24.37,78.21,22.98-1.78,21.94,7.95,44.33,29.41,61.1,39.62,30.95,103.86,30.95,143.49,0,21.46-16.76,31.19-39.16,29.41-61.1,28.08,1.39,56.75-6.21,78.21-22.98,21.46-16.76,31.19-39.16,29.41-61.1,28.08,1.39,56.75-6.21,78.21-22.98,39.62-30.96,39.62-81.14,0-112.1Z"/>
            </g>
            <g>
              <path class="cls-17" d="M1132.95,691.73c-21.46,16.76-31.19,39.16-29.41,61.1-28.08-1.39-56.75,6.21-78.21,22.98-21.46,16.76-31.19,39.16-29.41,61.1-28.08-1.39-56.75,6.21-78.21,22.98-39.62,30.96-39.62,81.14,0,112.1,21.46,16.76,50.13,24.37,78.21,22.98-1.78,21.94,7.95,44.33,29.41,61.1,21.46,16.76,50.13,24.37,78.21,22.98-1.78,21.94,7.95,44.33,29.41,61.1,39.62,30.95,103.86,30.95,143.49,0,21.46-16.76,31.19-39.16,29.41-61.1,28.08,1.39,56.75-6.21,78.21-22.98,21.46-16.76,31.19-39.16,29.41-61.1,28.08,1.39,56.75-6.21,78.21-22.98,39.62-30.95,39.62-81.14,0-112.1-21.46-16.76-50.13-24.37-78.21-22.98,1.78-21.94-7.95-44.33-29.41-61.1-21.46-16.76-50.13-24.37-78.21-22.98,1.78-21.93-7.95-44.33-29.41-61.1-39.62-30.95-103.86-30.95-143.49,0Z"/>
              <path class="cls-15" d="M1069.41,1189.76c-21.46-16.76-50.13-24.37-78.21-22.98,1.78-21.94-7.95-44.33-29.41-61.1-21.46-16.76-50.13-24.37-78.21-22.98,1.78-21.94-7.95-44.33-29.41-61.1-39.62-30.95-103.86-30.95-143.49,0-21.46,16.76-31.19,39.16-29.41,61.1-28.08-1.39-56.75,6.21-78.21,22.98-21.46,16.76-31.19,39.16-29.41,61.1-28.08-1.39-56.75,6.21-78.21,22.98-39.62,30.95-39.62,81.14,0,112.1,21.46,16.76,50.13,24.37,78.21,22.98-1.78,21.93,7.95,44.33,29.41,61.1,21.46,16.76,50.13,24.37,78.21,22.98-1.78,21.94,7.95,44.34,29.41,61.1,39.62,30.95,103.86,30.95,143.49,0,21.46-16.76,31.19-39.16,29.41-61.1,28.08,1.39,56.75-6.21,78.21-22.98,21.46-16.76,31.19-39.16,29.41-61.1,28.08,1.39,56.75-6.21,78.21-22.98,39.62-30.96,39.62-81.14,0-112.1Z"/>
            </g>
            <g>
              <path class="cls-17" d="M209.28,726.09c-21.46,16.76-31.19,39.16-29.41,61.1-28.08-1.39-56.75,6.21-78.21,22.98-21.46,16.76-31.19,39.16-29.41,61.1-28.08-1.39-56.75,6.21-78.21,22.98-39.62,30.95-39.62,81.14,0,112.1,21.46,16.76,50.13,24.37,78.21,22.98-1.78,21.94,7.95,44.33,29.41,61.1,21.46,16.76,50.13,24.37,78.21,22.98-1.78,21.94,7.95,44.34,29.41,61.1,39.62,30.96,103.86,30.96,143.49,0,21.46-16.76,31.19-39.16,29.41-61.1,28.08,1.39,56.75-6.21,78.2-22.98,21.46-16.76,31.19-39.16,29.41-61.1,28.08,1.39,56.75-6.21,78.21-22.98,39.62-30.96,39.62-81.14,0-112.1-21.46-16.76-50.13-24.37-78.21-22.98,1.78-21.94-7.95-44.34-29.41-61.1-21.46-16.76-50.13-24.37-78.2-22.98,1.78-21.94-7.95-44.33-29.41-61.1-39.62-30.96-103.86-30.96-143.49,0Z"/>
              <path class="cls-17" d="M209.28,66.33c-21.46,16.76-31.19,39.16-29.41,61.1-28.08-1.39-56.75,6.21-78.21,22.98-21.46,16.76-31.19,39.16-29.41,61.1-28.08-1.39-56.75,6.21-78.21,22.98-39.62,30.96-39.62,81.14,0,112.1,21.46,16.76,50.13,24.37,78.21,22.98-1.78,21.94,7.95,44.34,29.41,61.1,21.46,16.76,50.13,24.37,78.21,22.98-1.78,21.94,7.95,44.33,29.41,61.1,39.62,30.95,103.86,30.95,143.49,0,21.46-16.76,31.19-39.16,29.41-61.1,28.08,1.39,56.75-6.21,78.2-22.98,21.46-16.76,31.19-39.16,29.41-61.1,28.08,1.39,56.75-6.21,78.21-22.98,39.62-30.95,39.62-81.14,0-112.1-21.46-16.76-50.13-24.37-78.21-22.98,1.78-21.93-7.95-44.33-29.41-61.1-21.46-16.76-50.13-24.37-78.2-22.98,1.78-21.94-7.95-44.34-29.41-61.1-39.62-30.95-103.86-30.95-143.49,0Z"/>
              <path class="cls-18" d="M145.74,564.36c-21.46-16.76-50.13-24.37-78.21-22.98,1.78-21.94-7.95-44.33-29.41-61.1-21.46-16.76-50.13-24.37-78.21-22.98,1.78-21.94-7.95-44.33-29.41-61.1-39.62-30.95-103.86-30.95-143.49,0-21.46,16.76-31.19,39.16-29.41,61.1-28.08-1.39-56.75,6.21-78.21,22.98-21.46,16.76-31.19,39.16-29.41,61.1-28.08-1.39-56.75,6.21-78.21,22.98-39.62,30.95-39.62,81.14,0,112.1,21.46,16.76,50.13,24.37,78.21,22.98-1.78,21.94,7.95,44.33,29.41,61.1,21.46,16.76,50.13,24.37,78.21,22.98-1.78,21.94,7.95,44.33,29.41,61.1,39.62,30.95,103.86,30.95,143.49,0,21.46-16.76,31.19-39.16,29.41-61.1,28.08,1.39,56.75-6.21,78.21-22.98,21.46-16.76,31.19-39.16,29.41-61.1,28.08,1.39,56.75-6.21,78.21-22.98,39.62-30.96,39.62-81.14,0-112.1Z"/>
              <path class="cls-15" d="M990.24,564.36c-21.46-16.76-50.13-24.37-78.21-22.98,1.78-21.94-7.95-44.33-29.41-61.1-21.46-16.76-50.13-24.37-78.21-22.98,1.78-21.94-7.95-44.33-29.41-61.1-39.62-30.95-103.86-30.95-143.49,0-21.46,16.76-31.19,39.16-29.41,61.1-28.08-1.39-56.75,6.21-78.21,22.98-21.46,16.76-31.19,39.16-29.41,61.1-28.08-1.39-56.75,6.21-78.2,22.98-39.62,30.95-39.62,81.14,0,112.1,21.46,16.76,50.13,24.37,78.2,22.98-1.78,21.94,7.95,44.33,29.41,61.1,21.46,16.76,50.13,24.37,78.21,22.98-1.78,21.94,7.95,44.33,29.41,61.1,39.62,30.95,103.86,30.95,143.49,0,21.46-16.76,31.19-39.16,29.41-61.1,28.08,1.39,56.75-6.21,78.21-22.98,21.46-16.76,31.19-39.16,29.41-61.1,28.08,1.39,56.75-6.21,78.21-22.98,39.62-30.96,39.62-81.14,0-112.1Z"/>
            </g>
            <path class="cls-18" d="M66.57-61.05c-21.46-16.76-50.13-24.37-78.21-22.98,1.78-21.94-7.95-44.33-29.41-61.1-21.46-16.76-50.13-24.37-78.21-22.98,1.78-21.94-7.95-44.33-29.41-61.1-39.62-30.95-103.86-30.95-143.49,0-21.46,16.76-31.19,39.16-29.41,61.1-28.08-1.39-56.75,6.21-78.21,22.98-21.46,16.76-31.19,39.16-29.41,61.1-28.08-1.39-56.75,6.21-78.2,22.98-39.62,30.95-39.62,81.14,0,112.1,21.46,16.76,50.13,24.37,78.2,22.98-1.78,21.94,7.95,44.33,29.41,61.1,21.46,16.76,50.13,24.37,78.21,22.98-1.78,21.94,7.95,44.33,29.41,61.1,39.62,30.95,103.86,30.95,143.49,0,21.46-16.76,31.19-39.16,29.41-61.1,28.08,1.39,56.75-6.21,78.21-22.98,21.46-16.76,31.19-39.16,29.41-61.1,28.08,1.39,56.75-6.21,78.21-22.98,39.62-30.96,39.62-81.14,0-112.1Z"/>
            <path class="cls-15" d="M66.57,1189.76c-21.46-16.76-50.13-24.37-78.21-22.98,1.78-21.94-7.95-44.33-29.41-61.1-21.46-16.76-50.13-24.37-78.21-22.98,1.78-21.94-7.95-44.33-29.41-61.1-39.62-30.95-103.86-30.95-143.49,0-21.46,16.76-31.19,39.16-29.41,61.1-28.08-1.39-56.75,6.21-78.21,22.98-21.46,16.76-31.19,39.16-29.41,61.1-28.08-1.39-56.75,6.21-78.2,22.98-39.62,30.95-39.62,81.14,0,112.1,21.46,16.76,50.13,24.37,78.2,22.98-1.78,21.93,7.95,44.33,29.41,61.1,21.46,16.76,50.13,24.37,78.21,22.98-1.78,21.94,7.95,44.34,29.41,61.1,39.62,30.95,103.86,30.95,143.49,0,21.46-16.76,31.19-39.16,29.41-61.1,28.08,1.39,56.75-6.21,78.21-22.98,21.46-16.76,31.19-39.16,29.41-61.1,28.08,1.39,56.75-6.21,78.21-22.98,39.62-30.96,39.62-81.14,0-112.1Z"/>
          </g>
          <g class="cls-13">
            <path class="cls-18" d="M1993.09,564.36c-21.46-16.76-50.13-24.37-78.21-22.98,1.78-21.94-7.95-44.33-29.41-61.1-21.46-16.76-50.13-24.37-78.21-22.98,1.78-21.94-7.95-44.33-29.41-61.1-39.62-30.95-103.86-30.95-143.49,0-21.46,16.76-31.19,39.16-29.41,61.1-28.08-1.39-56.75,6.21-78.21,22.98-21.46,16.76-31.19,39.16-29.41,61.1-28.08-1.39-56.75,6.21-78.21,22.98-39.62,30.95-39.62,81.14,0,112.1,21.46,16.76,50.13,24.37,78.21,22.98-1.78,21.94,7.95,44.33,29.41,61.1,21.46,16.76,50.13,24.37,78.21,22.98-1.78,21.94,7.95,44.33,29.41,61.1,39.62,30.95,103.86,30.95,143.49,0,21.46-16.76,31.19-39.16,29.41-61.1,28.08,1.39,56.75-6.21,78.21-22.98,21.46-16.76,31.19-39.16,29.41-61.1,28.08,1.39,56.75-6.21,78.21-22.98,39.62-30.96,39.62-81.14,0-112.1Z"/>
            <g>
              <path class="cls-17" d="M1132.95,100.69c-21.46,16.76-31.19,39.16-29.41,61.1-28.08-1.39-56.75,6.21-78.2,22.98-21.46,16.76-31.19,39.16-29.41,61.1-28.08-1.39-56.75,6.21-78.21,22.98-39.62,30.95-39.62,81.14,0,112.1,21.46,16.76,50.13,24.37,78.21,22.98-1.78,21.94,7.95,44.33,29.41,61.1,21.46,16.76,50.13,24.37,78.2,22.98-1.78,21.93,7.95,44.33,29.41,61.1,39.62,30.96,103.86,30.96,143.49,0,21.46-16.76,31.19-39.16,29.41-61.1,28.08,1.39,56.75-6.21,78.2-22.98,21.46-16.76,31.19-39.16,29.41-61.1,28.08,1.39,56.75-6.21,78.21-22.98,39.62-30.96,39.62-81.14,0-112.1-21.46-16.76-50.13-24.37-78.21-22.98,1.78-21.94-7.95-44.34-29.41-61.1-21.46-16.76-50.13-24.37-78.2-22.98,1.78-21.94-7.95-44.33-29.41-61.1-39.62-30.95-103.86-30.95-143.49,0Z"/>
              <path class="cls-18" d="M1913.91-61.05c-21.46-16.76-50.13-24.37-78.21-22.98,1.78-21.94-7.95-44.33-29.41-61.1-21.46-16.76-50.13-24.37-78.21-22.98,1.78-21.94-7.95-44.33-29.41-61.1-39.62-30.95-103.86-30.95-143.49,0-21.46,16.76-31.19,39.16-29.41,61.1-28.08-1.39-56.75,6.21-78.21,22.98-21.46,16.76-31.19,39.16-29.41,61.1-28.08-1.39-56.75,6.21-78.2,22.98-39.62,30.95-39.62,81.14,0,112.1,21.46,16.76,50.13,24.37,78.2,22.98-1.78,21.94,7.95,44.33,29.41,61.1,21.46,16.76,50.13,24.37,78.21,22.98-1.78,21.94,7.95,44.33,29.41,61.1,39.62,30.95,103.86,30.95,143.49,0,21.46-16.76,31.19-39.16,29.41-61.1,28.08,1.39,56.75-6.21,78.21-22.98,21.46-16.76,31.19-39.16,29.41-61.1,28.08,1.39,56.75-6.21,78.21-22.98,39.62-30.96,39.62-81.14,0-112.1Z"/>
            </g>
            <g>
              <path class="cls-17" d="M1132.95,691.73c-21.46,16.76-31.19,39.16-29.41,61.1-28.08-1.39-56.75,6.21-78.2,22.98-21.46,16.76-31.19,39.16-29.41,61.1-28.08-1.39-56.75,6.21-78.21,22.98-39.62,30.96-39.62,81.14,0,112.1,21.46,16.76,50.13,24.37,78.21,22.98-1.78,21.94,7.95,44.33,29.41,61.1,21.46,16.76,50.13,24.37,78.2,22.98-1.78,21.94,7.95,44.33,29.41,61.1,39.62,30.95,103.86,30.95,143.49,0,21.46-16.76,31.19-39.16,29.41-61.1,28.08,1.39,56.75-6.21,78.2-22.98,21.46-16.76,31.19-39.16,29.41-61.1,28.08,1.39,56.75-6.21,78.21-22.98,39.62-30.95,39.62-81.14,0-112.1-21.46-16.76-50.13-24.37-78.21-22.98,1.78-21.94-7.95-44.33-29.41-61.1-21.46-16.76-50.13-24.37-78.2-22.98,1.78-21.93-7.95-44.33-29.41-61.1-39.62-30.95-103.86-30.95-143.49,0Z"/>
              <path class="cls-15" d="M1913.91,1189.76c-21.46-16.76-50.13-24.37-78.21-22.98,1.78-21.94-7.95-44.33-29.41-61.1-21.46-16.76-50.13-24.37-78.21-22.98,1.78-21.94-7.95-44.33-29.41-61.1-39.62-30.95-103.86-30.95-143.49,0-21.46,16.76-31.19,39.16-29.41,61.1-28.08-1.39-56.75,6.21-78.21,22.98-21.46,16.76-31.19,39.16-29.41,61.1-28.08-1.39-56.75,6.21-78.2,22.98-39.62,30.95-39.62,81.14,0,112.1,21.46,16.76,50.13,24.37,78.2,22.98-1.78,21.93,7.95,44.33,29.41,61.1,21.46,16.76,50.13,24.37,78.21,22.98-1.78,21.94,7.95,44.34,29.41,61.1,39.62,30.95,103.86,30.95,143.49,0,21.46-16.76,31.19-39.16,29.41-61.1,28.08,1.39,56.75-6.21,78.21-22.98,21.46-16.76,31.19-39.16,29.41-61.1,28.08,1.39,56.75-6.21,78.21-22.98,39.62-30.96,39.62-81.14,0-112.1Z"/>
            </g>
          </g>
          <g class="cls-12">
            <path class="cls-15" d="M1069.41,1189.76c-21.46-16.76-50.13-24.37-78.21-22.98,1.78-21.94-7.95-44.33-29.41-61.1-21.46-16.76-50.13-24.37-78.21-22.98,1.78-21.94-7.95-44.33-29.41-61.1-39.62-30.95-103.86-30.95-143.49,0-21.46,16.76-31.19,39.16-29.41,61.1-28.08-1.39-56.75,6.21-78.21,22.98-21.46,16.76-31.19,39.16-29.41,61.1-28.08-1.39-56.75,6.21-78.21,22.98-39.62,30.95-39.62,81.14,0,112.1,21.46,16.76,50.13,24.37,78.21,22.98-1.78,21.94,7.95,44.33,29.41,61.1,21.46,16.76,50.13,24.37,78.21,22.98-1.78,21.94,7.95,44.33,29.41,61.1,39.62,30.95,103.86,30.95,143.49,0,21.46-16.76,31.19-39.16,29.41-61.1,28.08,1.39,56.75-6.21,78.21-22.98,21.46-16.76,31.19-39.16,29.41-61.1,28.08,1.39,56.75-6.21,78.21-22.98,39.62-30.96,39.62-81.14,0-112.1Z"/>
            <path class="cls-15" d="M66.57,1189.76c-21.46-16.76-50.13-24.37-78.21-22.98,1.78-21.94-7.95-44.33-29.41-61.1-21.46-16.76-50.13-24.37-78.21-22.98,1.78-21.94-7.95-44.33-29.41-61.1-39.62-30.95-103.86-30.95-143.49,0-21.46,16.76-31.19,39.16-29.41,61.1-28.08-1.39-56.75,6.21-78.21,22.98-21.46,16.76-31.19,39.16-29.41,61.1-28.08-1.39-56.75,6.21-78.2,22.98-39.62,30.95-39.62,81.14,0,112.1,21.46,16.76,50.13,24.37,78.2,22.98-1.78,21.94,7.95,44.33,29.41,61.1,21.46,16.76,50.13,24.37,78.21,22.98-1.78,21.94,7.95,44.33,29.41,61.1,39.62,30.95,103.86,30.95,143.49,0,21.46-16.76,31.19-39.16,29.41-61.1,28.08,1.39,56.75-6.21,78.21-22.98,21.46-16.76,31.19-39.16,29.41-61.1,28.08,1.39,56.75-6.21,78.21-22.98,39.62-30.96,39.62-81.14,0-112.1Z"/>
          </g>
          <g class="cls-4">
            <path class="cls-15" d="M1913.91,1189.76c-21.46-16.76-50.13-24.37-78.21-22.98,1.78-21.94-7.95-44.33-29.41-61.1-21.46-16.76-50.13-24.37-78.21-22.98,1.78-21.94-7.95-44.33-29.41-61.1-39.62-30.95-103.86-30.95-143.49,0-21.46,16.76-31.19,39.16-29.41,61.1-28.08-1.39-56.75,6.21-78.21,22.98-21.46,16.76-31.19,39.16-29.41,61.1-28.08-1.39-56.75,6.21-78.2,22.98-39.62,30.95-39.62,81.14,0,112.1,21.46,16.76,50.13,24.37,78.2,22.98-1.78,21.94,7.95,44.33,29.41,61.1,21.46,16.76,50.13,24.37,78.21,22.98-1.78,21.94,7.95,44.33,29.41,61.1,39.62,30.95,103.86,30.95,143.49,0,21.46-16.76,31.19-39.16,29.41-61.1,28.08,1.39,56.75-6.21,78.21-22.98,21.46-16.76,31.19-39.16,29.41-61.1,28.08,1.39,56.75-6.21,78.21-22.98,39.62-30.96,39.62-81.14,0-112.1Z"/>
          </g>
        </g>
      </g>
    </g>
  </g>
</svg>