<?xml version="1.0" encoding="UTF-8"?>
<svg id="_レイヤー_1" data-name="レイヤー 1" xmlns="http://www.w3.org/2000/svg" xmlns:xlink="http://www.w3.org/1999/xlink" viewBox="0 0 1659.62 1273.81">
  <defs>
    <style>
      .cls-1, .cls-2, .cls-3 {
        fill: none;
      }

      .cls-2 {
        stroke: #f18e38;
        stroke-linecap: round;
      }

      .cls-2, .cls-3 {
        stroke-linejoin: round;
        stroke-width: 1.13px;
      }

      .cls-4 {
        fill: #fffde5;
      }

      .cls-5 {
        clip-path: url(#clippath-1);
      }

      .cls-6 {
        clip-path: url(#clippath-3);
      }

      .cls-7 {
        clip-path: url(#clippath-4);
      }

      .cls-8 {
        clip-path: url(#clippath-2);
      }

      .cls-9 {
        clip-path: url(#clippath-7);
      }

      .cls-10 {
        clip-path: url(#clippath-6);
      }

      .cls-11 {
        clip-path: url(#clippath-9);
      }

      .cls-12 {
        clip-path: url(#clippath-8);
      }

      .cls-13 {
        fill: #ffe67a;
      }

      .cls-14 {
        fill: #fdd23e;
      }

      .cls-3 {
        stroke: #9166a9;
      }

      .cls-15 {
        fill: #f18e38;
      }

      .cls-16 {
        fill: #9166a9;
      }

      .cls-17 {
        clip-path: url(#clippath);
      }
    </style>
    <clipPath id="clippath">
      <rect class="cls-1" x="1020.47" y="-1020.47" width="3401.57" height="5442.52" transform="translate(1020.47 4422.05) rotate(-90)"/>
    </clipPath>
    <clipPath id="clippath-1">
      <ellipse class="cls-1" cx="2.38" cy="2123.35" rx="763.36" ry="596.37"/>
    </clipPath>
    <clipPath id="clippath-2">
      <rect class="cls-1" x="-1661.43" y="707.34" width="1602.85" height="1250.81"/>
    </clipPath>
    <clipPath id="clippath-3">
      <rect class="cls-1" x="-58.58" y="707.34" width="1602.85" height="1250.81"/>
    </clipPath>
    <clipPath id="clippath-4">
      <path class="cls-1" d="M36.83,429.91c340.07,265.68,891.43,265.68,1231.5,0,340.07-265.68,340.07-696.43,0-962.11-340.07-265.68-891.43-265.68-1231.5,0-340.07,265.68-340.07,696.43,0,962.11Z"/>
    </clipPath>
    <clipPath id="clippath-5">
      <rect class="cls-1" x="-5882.55" y="-1020.47" width="3401.57" height="5442.52" transform="translate(-5882.55 -2480.97) rotate(-90)"/>
    </clipPath>
    <clipPath id="clippath-6">
      <rect class="cls-4" x="-2744.81" y="-5251.93" width="3401.57" height="5442.52" transform="translate(1486.65 -3574.7) rotate(-90)"/>
    </clipPath>
    <clipPath id="clippath-7">
      <path class="cls-1" d="M408.91-1259.8c340.07-265.68,891.43-265.68,1231.5,0,340.07,265.68,340.07,696.43,0,962.11-340.07,265.68-891.43,265.68-1231.5,0-340.07-265.68-340.07-696.43,0-962.11Z"/>
    </clipPath>
    <clipPath id="clippath-8">
      <rect class="cls-1" x="-541.07" y="-848.4" width="1847.35" height="1250.81"/>
    </clipPath>
    <clipPath id="clippath-9">
      <rect class="cls-1" x="1306.28" y="-848.4" width="1847.35" height="1250.81"/>
    </clipPath>
  </defs>
  <g class="cls-17">
    <g class="cls-5">
      <g class="cls-8">
        <path class="cls-2" d="M209.17,1124.29h0c-147.37,0-266.84,93.33-266.84,208.46.03,0,.07,0,.1,0,147.32-.04,266.73-93.36,266.73-208.46Z"/>
        <g>
          <path class="cls-3" d="M208.25,1124.28h.01c0-115.13-119.47-208.47-266.84-208.47,0,.03,0,.05,0,.08.06,115.1,119.5,208.39,266.83,208.39Z"/>
          <path class="cls-2" d="M-58.59,1332.66s0,.05,0,.08c147.37,0,266.84-93.33,266.84-208.47h-.01c-147.34,0-266.78,93.29-266.83,208.39Z"/>
          <g>
            <path class="cls-3" d="M-58.58,498.88s0,.05,0,.08c.06,115.07,119.44,208.34,266.73,208.38.04,0,.07,0,.1,0h.01c0-115.13-119.47-208.47-266.84-208.47h0Z"/>
            <path class="cls-2" d="M208.14,707.34c-147.29.05-266.67,93.32-266.73,208.38,0,.03,0,.05,0,.08,147.37,0,266.83-93.33,266.84-208.46h-.01s-.07,0-.1,0Z"/>
          </g>
        </g>
      </g>
      <g class="cls-6">
        <path class="cls-2" d="M1812.02,1124.29h0c-147.37,0-266.84,93.33-266.84,208.46.03,0,.07,0,.1,0,147.32-.04,266.73-93.36,266.73-208.46Z"/>
        <g>
          <path class="cls-3" d="M1010.59,915.81c0,115.14,119.47,208.47,266.84,208.47,0-115.13-119.47-208.47-266.84-208.47Z"/>
          <path class="cls-3" d="M1811.1,1124.28h.01c0-115.13-119.47-208.47-266.84-208.47,0,.03,0,.05,0,.08.06,115.1,119.5,208.39,266.83,208.39Z"/>
          <path class="cls-3" d="M1277.43,1124.28c0,115.13,119.46,208.46,266.83,208.47,0-.03,0-.05,0-.08-.06-115.1-119.5-208.39-266.83-208.39Z"/>
          <path class="cls-2" d="M1544.26,1332.66s0,.05,0,.08c147.37,0,266.84-93.33,266.84-208.47h-.01c-147.34,0-266.78,93.29-266.83,208.39Z"/>
          <path class="cls-3" d="M1010.59,498.87h0c0,115.11,119.41,208.43,266.73,208.47.04,0,.07,0,.1,0,0-115.13-119.47-208.47-266.84-208.47Z"/>
          <path class="cls-3" d="M743.86,707.34s-.07,0-.1,0c0,115.13,119.47,208.46,266.84,208.46,0-115.11-119.41-208.42-266.73-208.46Z"/>
          <path class="cls-2" d="M1010.59,498.88h0c-147.37,0-266.84,93.33-266.84,208.46.03,0,.07,0,.1,0,147.32-.04,266.73-93.36,266.73-208.46Z"/>
          <g>
            <path class="cls-3" d="M1277.53,707.34s-.07,0-.1,0c0,115.13,119.47,208.45,266.83,208.46,0-.03,0-.05,0-.08-.06-115.07-119.44-208.34-266.73-208.38Z"/>
            <path class="cls-3" d="M1544.27,498.88s0,.05,0,.08c.06,115.07,119.44,208.34,266.73,208.38.04,0,.07,0,.1,0h.01c0-115.13-119.47-208.47-266.84-208.47h0Z"/>
            <path class="cls-2" d="M1810.99,707.34c-147.29.05-266.67,93.32-266.73,208.38,0,.03,0,.05,0,.08,147.37,0,266.83-93.33,266.84-208.46h-.01s-.07,0-.1,0Z"/>
            <path class="cls-2" d="M1544.26,498.96s0-.05,0-.08h0c-147.37,0-266.83,93.33-266.83,208.46.04,0,.07,0,.1,0,147.29-.04,266.67-93.31,266.73-208.38Z"/>
          </g>
          <path class="cls-2" d="M1277.43,707.35s-.07,0-.1,0c-147.32.05-266.73,93.36-266.73,208.46,147.37,0,266.83-93.33,266.84-208.46Z"/>
          <path class="cls-2" d="M1544.26,915.89s0-.05,0-.08c-147.37,0-266.83,93.34-266.83,208.47,147.34,0,266.78-93.29,266.83-208.39Z"/>
        </g>
        <g>
          <path class="cls-3" d="M476,498.87c0,115.13,119.46,208.46,266.83,208.47,0-.03,0-.05,0-.08-.06-115.1-119.5-208.39-266.83-208.39Z"/>
          <path class="cls-2" d="M742.84,707.26s0,.05,0,.08c147.37,0,266.84-93.33,266.84-208.47h-.01c-147.34,0-266.78,93.29-266.83,208.39Z"/>
        </g>
        <g>
          <path class="cls-2" d="M742.84,1124.2s0,.05,0,.07h0c147.37,0,266.83-93.33,266.84-208.46h-.01c-147.34,0-266.78,93.29-266.83,208.39Z"/>
          <path class="cls-3" d="M1276.51,1124.28c0-115.13-119.46-208.46-266.83-208.46,0,115.13,119.46,208.45,266.83,208.46Z"/>
          <path class="cls-3" d="M1276.51,1124.29c0,115.11,119.41,208.42,266.74,208.46.03,0,.07,0,.1,0h.01c0-115.13-119.47-208.47-266.84-208.47h-.01Z"/>
          <path class="cls-3" d="M209.17,1124.28h0c0,115.11,119.41,208.43,266.73,208.47.04,0,.07,0,.1,0,0-115.13-119.47-208.47-266.84-208.47Z"/>
          <path class="cls-2" d="M476,915.82c-147.37,0-266.83,93.33-266.84,208.46,147.37,0,266.83-93.33,266.84-208.46Z"/>
          <path class="cls-2" d="M209.17,1124.29h0c-147.37,0-266.84,93.33-266.84,208.46.03,0,.07,0,.1,0,147.32-.04,266.73-93.36,266.73-208.46Z"/>
          <path class="cls-3" d="M742.84,707.43c.06,115.09,119.5,208.39,266.83,208.39h.01c0-115.14-119.47-208.48-266.84-208.48h0s0,.06,0,.09Z"/>
          <path class="cls-2" d="M742.84,707.43s0-.05,0-.08h0c-147.37,0-266.83,93.33-266.83,208.46h0c147.34,0,266.78-93.28,266.83-208.38Z"/>
          <g>
            <path class="cls-3" d="M742.84,1124.29s0,.05,0,.08c.06,115.07,119.44,208.34,266.73,208.38.03,0,.07,0,.1,0h.01c0-115.13-119.47-208.47-266.84-208.47h0Z"/>
            <path class="cls-2" d="M742.84,1124.37s0-.05,0-.08h0c-147.37,0-266.83,93.33-266.83,208.46.04,0,.07,0,.1,0,147.29-.04,266.67-93.31,266.73-208.38Z"/>
          </g>
          <path class="cls-3" d="M476,915.82c0,115.13,119.47,208.45,266.83,208.46,0-.03,0-.05,0-.07-.06-115.09-119.5-208.39-266.83-208.39Z"/>
          <path class="cls-2" d="M1009.78,1332.75c147.32-.04,266.74-93.36,266.74-208.46h0c-147.37,0-266.83,93.33-266.83,208.46h0s.06,0,.09,0Z"/>
        </g>
        <g>
          <path class="cls-3" d="M208.35,707.34s-.06,0-.09,0c0,115.13,119.46,208.45,266.83,208.46,0-115.11-119.41-208.42-266.74-208.46Z"/>
          <path class="cls-3" d="M208.25,1124.28h.01c0-115.13-119.47-208.47-266.84-208.47,0,.03,0,.05,0,.08.06,115.1,119.5,208.39,266.83,208.39Z"/>
          <path class="cls-2" d="M208.26,1124.28c147.37,0,266.83-93.34,266.83-208.47-147.37,0-266.83,93.34-266.83,208.47Z"/>
          <path class="cls-2" d="M-58.59,1332.66s0,.05,0,.08c147.37,0,266.84-93.33,266.84-208.47h-.01c-147.34,0-266.78,93.29-266.83,208.39Z"/>
          <path class="cls-3" d="M475.09,498.88c0,115.11,119.41,208.42,266.74,208.46.03,0,.07,0,.1,0h.01c0-115.13-119.47-208.47-266.84-208.47h-.01Z"/>
          <path class="cls-2" d="M741.82,707.34c-147.32.05-266.74,93.36-266.74,208.46h.01c147.37,0,266.83-93.33,266.84-208.46h-.01s-.07,0-.1,0Z"/>
          <g>
            <path class="cls-3" d="M-58.58,498.88s0,.05,0,.08c.06,115.07,119.44,208.34,266.73,208.38.03,0,.07,0,.1,0h.01c0-115.13-119.47-208.47-266.84-208.47h0Z"/>
            <path class="cls-2" d="M208.14,707.34c-147.29.05-266.67,93.32-266.73,208.38,0,.03,0,.05,0,.08,147.37,0,266.83-93.33,266.84-208.46h-.01s-.07,0-.1,0Z"/>
          </g>
          <path class="cls-2" d="M208.35,707.34c147.32-.04,266.74-93.36,266.74-208.46h0c-147.37,0-266.83,93.33-266.83,208.46h0s.06,0,.09,0Z"/>
        </g>
      </g>
    </g>
    <g>
      <path class="cls-13" d="M-743.67,77.57c340.07-265.68,891.43-265.68,1231.5,0,340.07,265.68,340.07,696.43,0,962.11-340.07,265.68-891.43,265.68-1231.5,0-340.07-265.68-340.07-696.43,0-962.11Z"/>
      <g>
        <path class="cls-4" d="M36.83,429.91c340.07,265.68,891.43,265.68,1231.5,0,340.07-265.68,340.07-696.43,0-962.11-340.07-265.68-891.43-265.68-1231.5,0-340.07,265.68-340.07,696.43,0,962.11Z"/>
        <g class="cls-7">
          <g>
            <rect class="cls-1" x="-415.74" y="-617.48" width="554.2" height="625.4"/>
            <path class="cls-14" d="M-138.64-148.42C-138.64-28.02-.09,7.93-.09,7.93-.09-32.52,12.5-52.48,44.75-87.22c32.25-34.74,93.72-61.2,93.72-61.2,0,0-61.46-26.46-93.72-61.2C12.5-244.37-.09-264.33-.09-304.77c0,0-138.55,35.95-138.55,156.35Z"/>
          </g>
          <g>
            <rect class="cls-1" x="138.46" y="-617.48" width="554.2" height="625.4"/>
            <path class="cls-14" d="M415.57-148.42c0,120.4,138.55,156.35,138.55,156.35,0-40.45,12.59-60.41,44.84-95.15,32.25-34.74,93.72-61.2,93.72-61.2,0,0-61.46-26.46-93.72-61.2-32.25-34.74-44.84-54.7-44.84-95.15,0,0-138.55,35.95-138.55,156.35Z"/>
            <path class="cls-15" d="M138.46-148.42C138.46-28.02,277.01,7.93,277.01,7.93c0-40.45,12.58-60.41,44.84-95.15,32.25-34.74,93.72-61.2,93.72-61.2,0,0-61.46-26.46-93.72-61.2-32.25-34.74-44.84-54.7-44.84-95.15,0,0-138.55,35.95-138.55,156.35Z"/>
          </g>
          <g>
            <rect class="cls-1" x="692.67" y="-617.48" width="554.2" height="625.4"/>
            <path class="cls-14" d="M969.77-148.42c0,120.4,138.55,156.35,138.55,156.35,0-40.45,12.59-60.41,44.84-95.15,32.25-34.74,93.72-61.2,93.72-61.2,0,0-61.46-26.46-93.72-61.2-32.25-34.74-44.84-54.7-44.84-95.15,0,0-138.55,35.95-138.55,156.35Z"/>
            <path class="cls-15" d="M692.67-148.42c0,120.4,138.55,156.35,138.55,156.35,0-40.45,12.58-60.41,44.84-95.15,32.25-34.74,93.72-61.2,93.72-61.2,0,0-61.46-26.46-93.72-61.2-32.25-34.74-44.84-54.7-44.84-95.15,0,0-138.55,35.95-138.55,156.35Z"/>
          </g>
          <g>
            <rect class="cls-1" x="1246.87" y="-617.48" width="554.2" height="625.4"/>
            <path class="cls-14" d="M1523.97-148.42c0,120.4,138.55,156.35,138.55,156.35,0-40.45,12.59-60.41,44.84-95.15,32.25-34.74,93.72-61.2,93.72-61.2,0,0-61.46-26.46-93.72-61.2-32.25-34.74-44.84-54.7-44.84-95.15,0,0-138.55,35.95-138.55,156.35Z"/>
            <path class="cls-15" d="M1246.87-148.42c0,120.4,138.55,156.35,138.55,156.35,0-40.45,12.58-60.41,44.84-95.15,32.25-34.74,93.72-61.2,93.72-61.2,0,0-61.46-26.46-93.72-61.2-32.25-34.74-44.84-54.7-44.84-95.15,0,0-138.55,35.95-138.55,156.35Z"/>
          </g>
          <g>
            <rect class="cls-1" x="-415.74" y="7.93" width="554.2" height="625.4"/>
            <path class="cls-14" d="M-138.64,476.98C-138.64,597.38-.09,633.33-.09,633.33c0-40.45,12.59-60.41,44.84-95.15,32.25-34.74,93.72-61.2,93.72-61.2,0,0-61.46-26.46-93.72-61.2C12.5,381.04-.09,361.08-.09,320.63c0,0-138.55,35.95-138.55,156.35Z"/>
            <path class="cls-15" d="M-138.64,164.28C-138.64,284.68-.09,320.63-.09,320.63c0-40.45,12.59-60.41,44.84-95.15,32.25-34.74,93.72-61.2,93.72-61.2,0,0-61.46-26.46-93.72-61.2C12.5,68.34-.09,48.38-.09,7.93c0,0-138.55,35.95-138.55,156.35Z"/>
          </g>
          <g>
            <rect class="cls-1" x="138.46" y="7.93" width="554.2" height="625.4"/>
            <path class="cls-14" d="M415.57,476.98c0,120.4,138.55,156.35,138.55,156.35,0-40.45,12.59-60.41,44.84-95.15,32.25-34.74,93.72-61.2,93.72-61.2,0,0-61.46-26.46-93.72-61.2-32.25-34.74-44.84-54.7-44.84-95.15,0,0-138.55,35.95-138.55,156.35Z"/>
            <path class="cls-15" d="M415.57,164.28c0,120.4,138.55,156.35,138.55,156.35,0-40.45,12.59-60.41,44.84-95.15,32.25-34.74,93.72-61.2,93.72-61.2,0,0-61.46-26.46-93.72-61.2-32.25-34.74-44.84-54.7-44.84-95.15,0,0-138.55,35.95-138.55,156.35Z"/>
            <path class="cls-15" d="M138.46,476.98c0,120.4,138.55,156.35,138.55,156.35,0-40.45,12.58-60.41,44.84-95.15,32.25-34.74,93.72-61.2,93.72-61.2,0,0-61.46-26.46-93.72-61.2-32.25-34.74-44.84-54.7-44.84-95.15,0,0-138.55,35.95-138.55,156.35Z"/>
            <path class="cls-14" d="M138.46,164.28c0,120.4,138.55,156.35,138.55,156.35,0-40.45,12.58-60.41,44.84-95.15,32.25-34.74,93.72-61.2,93.72-61.2,0,0-61.46-26.46-93.72-61.2-32.25-34.74-44.84-54.7-44.84-95.15,0,0-138.55,35.95-138.55,156.35Z"/>
          </g>
          <g>
            <rect class="cls-1" x="692.67" y="7.93" width="554.2" height="625.4"/>
            <path class="cls-14" d="M969.77,476.98c0,120.4,138.55,156.35,138.55,156.35,0-40.45,12.59-60.41,44.84-95.15,32.25-34.74,93.72-61.2,93.72-61.2,0,0-61.46-26.46-93.72-61.2-32.25-34.74-44.84-54.7-44.84-95.15,0,0-138.55,35.95-138.55,156.35Z"/>
            <path class="cls-15" d="M969.77,164.28c0,120.4,138.55,156.35,138.55,156.35,0-40.45,12.59-60.41,44.84-95.15,32.25-34.74,93.72-61.2,93.72-61.2,0,0-61.46-26.46-93.72-61.2-32.25-34.74-44.84-54.7-44.84-95.15,0,0-138.55,35.95-138.55,156.35Z"/>
            <path class="cls-15" d="M692.67,476.98c0,120.4,138.55,156.35,138.55,156.35,0-40.45,12.58-60.41,44.84-95.15,32.25-34.74,93.72-61.2,93.72-61.2,0,0-61.46-26.46-93.72-61.2-32.25-34.74-44.84-54.7-44.84-95.15,0,0-138.55,35.95-138.55,156.35Z"/>
            <path class="cls-14" d="M692.67,164.28c0,120.4,138.55,156.35,138.55,156.35,0-40.45,12.58-60.41,44.84-95.15,32.25-34.74,93.72-61.2,93.72-61.2,0,0-61.46-26.46-93.72-61.2-32.25-34.74-44.84-54.7-44.84-95.15,0,0-138.55,35.95-138.55,156.35Z"/>
          </g>
          <g>
            <rect class="cls-1" x="1246.87" y="7.93" width="554.2" height="625.4"/>
            <path class="cls-14" d="M1523.97,476.98c0,120.4,138.55,156.35,138.55,156.35,0-40.45,12.59-60.41,44.84-95.15,32.25-34.74,93.72-61.2,93.72-61.2,0,0-61.46-26.46-93.72-61.2-32.25-34.74-44.84-54.7-44.84-95.15,0,0-138.55,35.95-138.55,156.35Z"/>
            <path class="cls-15" d="M1523.97,164.28c0,120.4,138.55,156.35,138.55,156.35,0-40.45,12.59-60.41,44.84-95.15,32.25-34.74,93.72-61.2,93.72-61.2,0,0-61.46-26.46-93.72-61.2-32.25-34.74-44.84-54.7-44.84-95.15,0,0-138.55,35.95-138.55,156.35Z"/>
            <path class="cls-15" d="M1246.87,476.98c0,120.4,138.55,156.35,138.55,156.35,0-40.45,12.58-60.41,44.84-95.15,32.25-34.74,93.72-61.2,93.72-61.2,0,0-61.46-26.46-93.72-61.2-32.25-34.74-44.84-54.7-44.84-95.15,0,0-138.55,35.95-138.55,156.35Z"/>
            <path class="cls-14" d="M1246.87,164.28c0,120.4,138.55,156.35,138.55,156.35,0-40.45,12.58-60.41,44.84-95.15,32.25-34.74,93.72-61.2,93.72-61.2,0,0-61.46-26.46-93.72-61.2-32.25-34.74-44.84-54.7-44.84-95.15,0,0-138.55,35.95-138.55,156.35Z"/>
          </g>
        </g>
      </g>
    </g>
  </g>
  <g>
    <rect class="cls-4" x="-2744.81" y="-5251.93" width="3401.57" height="5442.52" transform="translate(1486.65 -3574.7) rotate(-90)"/>
    <g class="cls-10">
      <g class="cls-9">
        <g class="cls-12">
          <g>
            <path class="cls-14" d="M1234.53-151.67c-21.46,16.76-31.19,39.16-29.41,61.1-28.08-1.39-56.75,6.21-78.21,22.98-21.46,16.76-31.19,39.16-29.41,61.1-28.08-1.39-56.75,6.21-78.21,22.98-39.62,30.96-39.62,81.14,0,112.1,21.46,16.76,50.13,24.37,78.21,22.98-1.78,21.94,7.95,44.33,29.41,61.1,21.46,16.76,50.13,24.37,78.21,22.98-1.78,21.94,7.95,44.33,29.41,61.1,39.62,30.95,103.86,30.95,143.49,0,21.46-16.76,31.19-39.16,29.41-61.1,28.08,1.39,56.75-6.21,78.21-22.98,21.46-16.76,31.19-39.16,29.41-61.1,28.08,1.39,56.75-6.21,78.21-22.98,39.62-30.95,39.62-81.14,0-112.1-21.46-16.76-50.13-24.37-78.21-22.98,1.78-21.94-7.95-44.33-29.41-61.1-21.46-16.76-50.13-24.37-78.21-22.98,1.78-21.93-7.95-44.33-29.41-61.1-39.62-30.95-103.86-30.95-143.49,0Z"/>
            <path class="cls-16" d="M1170.99,346.37c-21.46-16.76-50.13-24.37-78.21-22.98,1.78-21.94-7.95-44.33-29.41-61.1-21.46-16.76-50.13-24.37-78.21-22.98,1.78-21.94-7.95-44.33-29.41-61.1-39.62-30.95-103.86-30.95-143.49,0-21.46,16.76-31.19,39.16-29.41,61.1-28.08-1.39-56.75,6.21-78.21,22.98-21.46,16.76-31.19,39.16-29.41,61.1-28.08-1.39-56.75,6.21-78.21,22.98-39.62,30.95-39.62,81.14,0,112.1,21.46,16.76,50.13,24.37,78.21,22.98-1.78,21.93,7.95,44.33,29.41,61.1,21.46,16.76,50.13,24.37,78.21,22.98-1.78,21.94,7.95,44.34,29.41,61.1,39.62,30.95,103.86,30.95,143.49,0,21.46-16.76,31.19-39.16,29.41-61.1,28.08,1.39,56.75-6.21,78.21-22.98,21.46-16.76,31.19-39.16,29.41-61.1,28.08,1.39,56.75-6.21,78.21-22.98,39.62-30.96,39.62-81.14,0-112.1Z"/>
          </g>
          <g>
            <path class="cls-14" d="M310.86-117.3c-21.46,16.76-31.19,39.16-29.41,61.1-28.08-1.39-56.75,6.21-78.21,22.98-21.46,16.76-31.19,39.16-29.41,61.1-28.08-1.39-56.75,6.21-78.21,22.98-39.62,30.95-39.62,81.14,0,112.1,21.46,16.76,50.13,24.37,78.21,22.98-1.78,21.94,7.95,44.33,29.41,61.1,21.46,16.76,50.13,24.37,78.21,22.98-1.78,21.94,7.95,44.34,29.41,61.1,39.62,30.96,103.86,30.96,143.49,0,21.46-16.76,31.19-39.16,29.41-61.1,28.08,1.39,56.75-6.21,78.2-22.98,21.46-16.76,31.19-39.16,29.41-61.1,28.08,1.39,56.75-6.21,78.21-22.98,39.62-30.96,39.62-81.14,0-112.1-21.46-16.76-50.13-24.37-78.21-22.98,1.78-21.94-7.95-44.34-29.41-61.1-21.46-16.76-50.13-24.37-78.2-22.98,1.78-21.94-7.95-44.33-29.41-61.1-39.62-30.96-103.86-30.96-143.49,0Z"/>
            <path class="cls-16" d="M247.32-279.04c-21.46-16.76-50.13-24.37-78.21-22.98,1.78-21.94-7.95-44.33-29.41-61.1-21.46-16.76-50.13-24.37-78.21-22.98,1.78-21.94-7.95-44.33-29.41-61.1-39.62-30.95-103.86-30.95-143.49,0-21.46,16.76-31.19,39.16-29.41,61.1-28.08-1.39-56.75,6.21-78.21,22.98-21.46,16.76-31.19,39.16-29.41,61.1-28.08-1.39-56.75,6.21-78.21,22.98-39.62,30.95-39.62,81.14,0,112.1,21.46,16.76,50.13,24.37,78.21,22.98-1.78,21.94,7.95,44.33,29.41,61.1,21.46,16.76,50.13,24.37,78.21,22.98-1.78,21.94,7.95,44.33,29.41,61.1C-71.77,32.16-7.53,32.16,32.09,1.21c21.46-16.76,31.19-39.16,29.41-61.1,28.08,1.39,56.75-6.21,78.21-22.98,21.46-16.76,31.19-39.16,29.41-61.1,28.08,1.39,56.75-6.21,78.21-22.98,39.62-30.96,39.62-81.14,0-112.1Z"/>
            <path class="cls-16" d="M1091.82-279.04c-21.46-16.76-50.13-24.37-78.21-22.98,1.78-21.94-7.95-44.33-29.41-61.1-21.46-16.76-50.13-24.37-78.21-22.98,1.78-21.94-7.95-44.33-29.41-61.1-39.62-30.95-103.86-30.95-143.49,0-21.46,16.76-31.19,39.16-29.41,61.1-28.08-1.39-56.75,6.21-78.21,22.98-21.46,16.76-31.19,39.16-29.41,61.1-28.08-1.39-56.75,6.21-78.2,22.98-39.62,30.95-39.62,81.14,0,112.1,21.46,16.76,50.13,24.37,78.2,22.98-1.78,21.94,7.95,44.33,29.41,61.1,21.46,16.76,50.13,24.37,78.21,22.98-1.78,21.94,7.95,44.33,29.41,61.1,39.62,30.95,103.86,30.95,143.49,0,21.46-16.76,31.19-39.16,29.41-61.1,28.08,1.39,56.75-6.21,78.21-22.98,21.46-16.76,31.19-39.16,29.41-61.1,28.08,1.39,56.75-6.21,78.21-22.98,39.62-30.96,39.62-81.14,0-112.1Z"/>
          </g>
          <path class="cls-16" d="M168.15,346.37c-21.46-16.76-50.13-24.37-78.21-22.98,1.78-21.94-7.95-44.33-29.41-61.1-21.46-16.76-50.13-24.37-78.21-22.98,1.78-21.94-7.95-44.33-29.41-61.1-39.62-30.95-103.86-30.95-143.49,0-21.46,16.76-31.19,39.16-29.41,61.1-28.08-1.39-56.75,6.21-78.21,22.98-21.46,16.76-31.19,39.16-29.41,61.1-28.08-1.39-56.75,6.21-78.2,22.98-39.62,30.95-39.62,81.14,0,112.1,21.46,16.76,50.13,24.37,78.2,22.98-1.78,21.93,7.95,44.33,29.41,61.1,21.46,16.76,50.13,24.37,78.21,22.98-1.78,21.94,7.95,44.34,29.41,61.1,39.62,30.95,103.86,30.95,143.49,0,21.46-16.76,31.19-39.16,29.41-61.1,28.08,1.39,56.75-6.21,78.21-22.98,21.46-16.76,31.19-39.16,29.41-61.1,28.08,1.39,56.75-6.21,78.21-22.98,39.62-30.96,39.62-81.14,0-112.1Z"/>
        </g>
        <g class="cls-11">
          <path class="cls-16" d="M2094.67-279.04c-21.46-16.76-50.13-24.37-78.21-22.98,1.78-21.94-7.95-44.33-29.41-61.1-21.46-16.76-50.13-24.37-78.21-22.98,1.78-21.94-7.95-44.33-29.41-61.1-39.62-30.95-103.86-30.95-143.49,0-21.46,16.76-31.19,39.16-29.41,61.1-28.08-1.39-56.75,6.21-78.21,22.98-21.46,16.76-31.19,39.16-29.41,61.1-28.08-1.39-56.75,6.21-78.21,22.98-39.62,30.95-39.62,81.14,0,112.1,21.46,16.76,50.13,24.37,78.21,22.98-1.78,21.94,7.95,44.33,29.41,61.1,21.46,16.76,50.13,24.37,78.21,22.98-1.78,21.94,7.95,44.33,29.41,61.1,39.62,30.95,103.86,30.95,143.49,0,21.46-16.76,31.19-39.16,29.41-61.1,28.08,1.39,56.75-6.21,78.21-22.98,21.46-16.76,31.19-39.16,29.41-61.1,28.08,1.39,56.75-6.21,78.21-22.98,39.62-30.96,39.62-81.14,0-112.1Z"/>
          <g>
            <path class="cls-14" d="M1234.53-151.67c-21.46,16.76-31.19,39.16-29.41,61.1-28.08-1.39-56.75,6.21-78.2,22.98-21.46,16.76-31.19,39.16-29.41,61.1-28.08-1.39-56.75,6.21-78.21,22.98-39.62,30.96-39.62,81.14,0,112.1,21.46,16.76,50.13,24.37,78.21,22.98-1.78,21.94,7.95,44.33,29.41,61.1,21.46,16.76,50.13,24.37,78.2,22.98-1.78,21.94,7.95,44.33,29.41,61.1,39.62,30.95,103.86,30.95,143.49,0,21.46-16.76,31.19-39.16,29.41-61.1,28.08,1.39,56.75-6.21,78.2-22.98,21.46-16.76,31.19-39.16,29.41-61.1,28.08,1.39,56.75-6.21,78.21-22.98,39.62-30.95,39.62-81.14,0-112.1-21.46-16.76-50.13-24.37-78.21-22.98,1.78-21.94-7.95-44.33-29.41-61.1-21.46-16.76-50.13-24.37-78.2-22.98,1.78-21.93-7.95-44.33-29.41-61.1-39.62-30.95-103.86-30.95-143.49,0Z"/>
            <path class="cls-16" d="M2015.5,346.37c-21.46-16.76-50.13-24.37-78.21-22.98,1.78-21.94-7.95-44.33-29.41-61.1-21.46-16.76-50.13-24.37-78.21-22.98,1.78-21.94-7.95-44.33-29.41-61.1-39.62-30.95-103.86-30.95-143.49,0-21.46,16.76-31.19,39.16-29.41,61.1-28.08-1.39-56.75,6.21-78.21,22.98-21.46,16.76-31.19,39.16-29.41,61.1-28.08-1.39-56.75,6.21-78.2,22.98-39.62,30.95-39.62,81.14,0,112.1,21.46,16.76,50.13,24.37,78.2,22.98-1.78,21.93,7.95,44.33,29.41,61.1,21.46,16.76,50.13,24.37,78.21,22.98-1.78,21.94,7.95,44.34,29.41,61.1,39.62,30.95,103.86,30.95,143.49,0,21.46-16.76,31.19-39.16,29.41-61.1,28.08,1.39,56.75-6.21,78.21-22.98,21.46-16.76,31.19-39.16,29.41-61.1,28.08,1.39,56.75-6.21,78.21-22.98,39.62-30.96,39.62-81.14,0-112.1Z"/>
          </g>
        </g>
      </g>
    </g>
  </g>
</svg>