<?xml version="1.0" encoding="UTF-8"?>
<svg id="_レイヤー_1" data-name="レイヤー 1" xmlns="http://www.w3.org/2000/svg" xmlns:xlink="http://www.w3.org/1999/xlink" viewBox="0 0 2205.08 1874.6">
  <defs>
    <style>
      .cls-1, .cls-2, .cls-3 {
        fill: none;
      }

      .cls-2 {
        stroke: #f18e38;
        stroke-linecap: round;
      }

      .cls-2, .cls-3 {
        stroke-linejoin: round;
        stroke-width: 1.13px;
      }

      .cls-4 {
        fill: #fffde5;
      }

      .cls-5 {
        clip-path: url(#clippath-1);
      }

      .cls-6 {
        clip-path: url(#clippath-3);
      }

      .cls-7 {
        clip-path: url(#clippath-4);
      }

      .cls-8 {
        clip-path: url(#clippath-2);
      }

      .cls-9 {
        clip-path: url(#clippath-7);
      }

      .cls-10 {
        clip-path: url(#clippath-6);
      }

      .cls-11 {
        clip-path: url(#clippath-8);
      }

      .cls-12 {
        clip-path: url(#clippath-5);
      }

      .cls-13 {
        fill: #fdd23e;
      }

      .cls-3 {
        stroke: #9166a9;
      }

      .cls-14 {
        fill: #f4a452;
      }

      .cls-15 {
        clip-path: url(#clippath);
      }
    </style>
    <clipPath id="clippath">
      <rect class="cls-1" x="1018.09" y="-2547.45" width="3401.57" height="5442.52" transform="translate(2545.07 2892.68) rotate(-90)"/>
    </clipPath>
    <clipPath id="clippath-1">
      <ellipse class="cls-1" cx="0" cy="596.37" rx="763.36" ry="596.37"/>
    </clipPath>
    <clipPath id="clippath-2">
      <rect class="cls-1" x="-1663.82" y="-819.64" width="1602.85" height="1250.81"/>
    </clipPath>
    <clipPath id="clippath-3">
      <rect class="cls-1" x="-60.96" y="-819.64" width="1602.85" height="1250.81"/>
    </clipPath>
    <clipPath id="clippath-4">
      <rect class="cls-1" x="-1663.82" y="431.17" width="1602.85" height="1250.81"/>
    </clipPath>
    <clipPath id="clippath-5">
      <rect class="cls-1" x="-60.96" y="431.17" width="1602.85" height="1250.81"/>
    </clipPath>
    <clipPath id="clippath-6">
      <rect class="cls-1" x="-5884.93" y="-2547.45" width="3401.57" height="5442.52" transform="translate(-4357.96 -4010.34) rotate(-90)"/>
    </clipPath>
    <clipPath id="clippath-7">
      <path class="cls-1" d="M-2731.21,1444.68c340.07-265.68,891.43-265.68,1231.5,0,340.07,265.68,340.07,696.43,0,962.11-340.07,265.68-891.43,265.68-1231.5,0-340.07-265.68-340.07-696.43,0-962.11Z"/>
    </clipPath>
    <clipPath id="clippath-8">
      <rect class="cls-1" x="-1833.85" y="605.28" width="1847.35" height="1250.81"/>
    </clipPath>
    <clipPath id="clippath-9">
      <rect class="cls-1" x="-1833.85" y="1856.09" width="1847.35" height="1250.81"/>
    </clipPath>
  </defs>
  <g class="cls-15">
    <g>
      <g>
        <ellipse class="cls-4" cx="0" cy="596.37" rx="763.36" ry="596.37"/>
        <g class="cls-5">
          <g class="cls-8">
            <path class="cls-3" d="M-59.95-194.23s-.07,0-.1,0c0,115.13,119.47,208.46,266.84,208.46,0-115.11-119.41-208.42-266.73-208.46Z"/>
            <g>
              <path class="cls-2" d="M-60.97,222.63s0,.05,0,.07h0c147.37,0,266.83-93.33,266.84-208.46h-.01C58.53,14.24-60.92,107.54-60.97,222.63Z"/>
              <path class="cls-3" d="M-60.97-194.14c.06,115.09,119.5,208.39,266.83,208.39h.01c0-115.14-119.47-208.48-266.84-208.48h0s0,.06,0,.09Z"/>
              <g>
                <path class="cls-3" d="M-60.97,222.71s0,.05,0,.08c.06,115.07,119.44,208.34,266.73,208.38.04,0,.07,0,.1,0h.01c0-115.13-119.47-208.47-266.84-208.47h0Z"/>
                <path class="cls-2" d="M205.76,431.17c-147.29.04-266.67,93.32-266.73,208.38,0,.03,0,.05,0,.08,147.37,0,266.83-93.33,266.84-208.46h-.01s-.07,0-.1,0Z"/>
              </g>
            </g>
          </g>
          <g class="cls-6">
            <path class="cls-3" d="M1542.9-194.23s-.07,0-.1,0c0,115.13,119.47,208.46,266.84,208.46,0-115.11-119.41-208.42-266.73-208.46Z"/>
            <g>
              <path class="cls-2" d="M1541.88,222.63s0,.05,0,.07h0c147.37,0,266.83-93.33,266.84-208.46h-.01c-147.34,0-266.78,93.29-266.83,208.39Z"/>
              <path class="cls-3" d="M1008.21,222.7h0c0,115.11,119.41,208.43,266.73,208.47.04,0,.07,0,.1,0,0-115.13-119.47-208.47-266.84-208.47Z"/>
              <path class="cls-2" d="M1275.05,14.24c-147.37,0-266.83,93.33-266.84,208.46,147.37,0,266.83-93.33,266.84-208.46Z"/>
              <path class="cls-3" d="M741.47,431.17s-.07,0-.1,0c0,115.13,119.47,208.46,266.84,208.46,0-115.11-119.41-208.42-266.73-208.46Z"/>
              <path class="cls-2" d="M1008.21,222.71h0c-147.37,0-266.84,93.33-266.84,208.46.03,0,.07,0,.1,0,147.32-.04,266.73-93.36,266.73-208.46Z"/>
              <path class="cls-3" d="M1541.88-194.14c.06,115.09,119.5,208.39,266.83,208.39h.01c0-115.14-119.47-208.48-266.84-208.48h0s0,.06,0,.09Z"/>
              <path class="cls-2" d="M1541.88-194.14s0-.05,0-.08h0c-147.37,0-266.83,93.33-266.83,208.46h0c147.34,0,266.78-93.28,266.83-208.38Z"/>
              <g>
                <path class="cls-3" d="M1275.15,431.17s-.07,0-.1,0c0,115.13,119.47,208.45,266.83,208.46,0-.03,0-.05,0-.08-.06-115.07-119.44-208.34-266.73-208.38Z"/>
                <path class="cls-3" d="M1541.89,222.71s0,.05,0,.08c.06,115.07,119.44,208.34,266.73,208.38.04,0,.07,0,.1,0h.01c0-115.13-119.47-208.47-266.84-208.47h0Z"/>
                <path class="cls-2" d="M1808.61,431.17c-147.29.04-266.67,93.32-266.73,208.38,0,.03,0,.05,0,.08,147.37,0,266.83-93.33,266.84-208.46h-.01s-.07,0-.1,0Z"/>
                <path class="cls-2" d="M1541.88,222.79s0-.05,0-.08h0c-147.37,0-266.83,93.33-266.83,208.46.04,0,.07,0,.1,0,147.29-.04,266.67-93.31,266.73-208.38Z"/>
              </g>
              <path class="cls-3" d="M1275.05,14.24c0,115.13,119.47,208.45,266.83,208.46,0-.03,0-.05,0-.07-.06-115.09-119.5-208.39-266.83-208.39Z"/>
              <path class="cls-2" d="M1275.05,431.18s-.07,0-.1,0c-147.32.04-266.73,93.36-266.73,208.46,147.37,0,266.83-93.33,266.84-208.46Z"/>
            </g>
            <g>
              <path class="cls-3" d="M206.78,14.23c0,115.13,119.47,208.47,266.84,208.47,0-115.14-119.47-208.47-266.84-208.47Z"/>
              <path class="cls-3" d="M1007.39-194.23s-.06,0-.09,0c0,115.13,119.46,208.45,266.83,208.46,0-115.11-119.41-208.42-266.74-208.46Z"/>
              <path class="cls-3" d="M1007.29,222.7h.01c0-115.14-119.47-208.47-266.84-208.47,0,.03,0,.05,0,.08.06,115.1,119.5,208.39,266.83,208.39Z"/>
              <path class="cls-2" d="M1007.3,222.7c147.37,0,266.83-93.34,266.83-208.47-147.37,0-266.83,93.34-266.83,208.47Z"/>
              <path class="cls-3" d="M473.62,222.7c0,115.13,119.46,208.46,266.83,208.47,0-.03,0-.05,0-.08-.06-115.1-119.5-208.39-266.83-208.39Z"/>
              <path class="cls-2" d="M740.45,431.09s0,.05,0,.08c147.37,0,266.84-93.33,266.84-208.47h-.01c-147.34,0-266.78,93.29-266.83,208.39Z"/>
              <path class="cls-2" d="M1540.86-194.23c-147.32.04-266.74,93.36-266.74,208.46h.01c147.37,0,266.83-93.33,266.84-208.46h-.01s-.07,0-.1,0Z"/>
              <path class="cls-3" d="M-59.95-194.23s-.07,0-.1,0c0,115.13,119.47,208.46,266.84,208.46,0-115.11-119.41-208.42-266.73-208.46Z"/>
              <g>
                <path class="cls-3" d="M473.72-194.23s-.07,0-.1,0c0,115.13,119.47,208.45,266.83,208.46,0-.03,0-.05,0-.08-.06-115.07-119.44-208.34-266.73-208.38Z"/>
                <path class="cls-2" d="M1007.18-194.23c-147.29.04-266.67,93.32-266.73,208.38,0,.03,0,.05,0,.08,147.37,0,266.83-93.33,266.84-208.46h-.01s-.07,0-.1,0Z"/>
              </g>
              <path class="cls-2" d="M473.62-194.22s-.07,0-.1,0c-147.32.04-266.73,93.36-266.73,208.46,147.37,0,266.83-93.33,266.84-208.46Z"/>
              <path class="cls-2" d="M740.45,14.32s0-.05,0-.08c-147.37,0-266.83,93.34-266.83,208.47,147.34,0,266.78-93.29,266.83-208.39Z"/>
            </g>
            <g>
              <path class="cls-3" d="M740.45,431.26c.06,115.09,119.5,208.39,266.83,208.39h.01c0-115.14-119.47-208.48-266.84-208.48h0s0,.06,0,.09Z"/>
              <path class="cls-2" d="M740.45,431.26s0-.05,0-.08h0c-147.37,0-266.83,93.33-266.83,208.46h0c147.34,0,266.78-93.28,266.83-208.38Z"/>
            </g>
            <g>
              <path class="cls-2" d="M-60.97,222.63s0,.05,0,.07h0c147.37,0,266.83-93.33,266.84-208.46h-.01C58.53,14.24-60.92,107.54-60.97,222.63Z"/>
              <path class="cls-3" d="M472.7,222.7c0-115.13-119.46-208.46-266.83-208.46,0,115.13,119.46,208.45,266.83,208.46Z"/>
              <path class="cls-3" d="M205.96,431.17s-.06,0-.09,0c0,115.13,119.46,208.45,266.83,208.46,0-115.11-119.41-208.42-266.74-208.46Z"/>
              <path class="cls-3" d="M472.7,222.71c0,115.11,119.41,208.42,266.74,208.46.03,0,.07,0,.1,0h.01c0-115.13-119.47-208.47-266.84-208.47h-.01Z"/>
              <path class="cls-2" d="M739.44,431.17c-147.32.04-266.74,93.36-266.74,208.46h.01c147.37,0,266.83-93.33,266.84-208.46h-.01s-.07,0-.1,0Z"/>
              <path class="cls-3" d="M-60.97-194.14c.06,115.09,119.5,208.39,266.83,208.39h.01c0-115.14-119.47-208.48-266.84-208.48h0s0,.06,0,.09Z"/>
              <g>
                <path class="cls-3" d="M-60.97,222.71s0,.05,0,.08c.06,115.07,119.44,208.34,266.73,208.38.03,0,.07,0,.1,0h.01c0-115.13-119.47-208.47-266.84-208.47h0Z"/>
                <path class="cls-2" d="M205.76,431.17c-147.29.04-266.67,93.32-266.73,208.38,0,.03,0,.05,0,.08,147.37,0,266.83-93.33,266.84-208.46h-.01s-.07,0-.1,0Z"/>
              </g>
              <path class="cls-2" d="M205.96,431.17c147.32-.04,266.74-93.36,266.74-208.46h0c-147.37,0-266.83,93.33-266.83,208.46h0s.06,0,.09,0Z"/>
            </g>
          </g>
          <g class="cls-7">
            <g>
              <path class="cls-3" d="M-59.95,1056.58s-.07,0-.1,0c0,115.13,119.47,208.46,266.84,208.46,0-115.11-119.41-208.42-266.73-208.46Z"/>
              <path class="cls-2" d="M206.78,848.12h0c-147.37,0-266.84,93.33-266.84,208.46.03,0,.07,0,.1,0,147.32-.04,266.73-93.36,266.73-208.46Z"/>
            </g>
            <g>
              <path class="cls-3" d="M205.86,848.11h.01c0-115.13-119.47-208.47-266.84-208.47,0,.03,0,.05,0,.08.06,115.1,119.5,208.39,266.83,208.39Z"/>
              <path class="cls-2" d="M-60.97,1056.49s0,.05,0,.08c147.37,0,266.84-93.33,266.84-208.47h-.01c-147.34,0-266.78,93.29-266.83,208.39Z"/>
              <g>
                <path class="cls-3" d="M-60.97,222.71s0,.05,0,.08c.06,115.07,119.44,208.34,266.73,208.38.04,0,.07,0,.1,0h.01c0-115.13-119.47-208.47-266.84-208.47h0Z"/>
                <path class="cls-2" d="M205.76,431.17c-147.29.05-266.67,93.32-266.73,208.38,0,.03,0,.05,0,.08,147.37,0,266.83-93.33,266.84-208.46h-.01s-.07,0-.1,0Z"/>
              </g>
            </g>
            <g>
              <path class="cls-2" d="M-60.97,1473.44s0,.05,0,.07h0c147.37,0,266.83-93.33,266.84-208.46h-.01c-147.34,0-266.78,93.29-266.83,208.39Z"/>
              <path class="cls-3" d="M-60.97,1056.67c.06,115.09,119.5,208.39,266.83,208.39h.01c0-115.14-119.47-208.48-266.84-208.48h0s0,.06,0,.09Z"/>
              <g>
                <path class="cls-3" d="M-60.97,1473.52s0,.05,0,.08c.06,115.07,119.44,208.34,266.73,208.38.04,0,.07,0,.1,0h.01c0-115.13-119.47-208.47-266.84-208.47h0Z"/>
                <path class="cls-2" d="M205.76,1681.98c-147.29.04-266.67,93.32-266.73,208.38,0,.03,0,.05,0,.08,147.37,0,266.83-93.33,266.84-208.46h-.01s-.07,0-.1,0Z"/>
              </g>
            </g>
          </g>
          <g class="cls-12">
            <g>
              <path class="cls-3" d="M1542.9,1056.58s-.07,0-.1,0c0,115.13,119.47,208.46,266.84,208.46,0-115.11-119.41-208.42-266.73-208.46Z"/>
              <path class="cls-2" d="M1809.63,848.12h0c-147.37,0-266.84,93.33-266.84,208.46.03,0,.07,0,.1,0,147.32-.04,266.73-93.36,266.73-208.46Z"/>
            </g>
            <g>
              <path class="cls-3" d="M1008.21,639.64c0,115.14,119.47,208.47,266.84,208.47,0-115.13-119.47-208.47-266.84-208.47Z"/>
              <path class="cls-3" d="M1808.71,848.11h.01c0-115.13-119.47-208.47-266.84-208.47,0,.03,0,.05,0,.08.06,115.1,119.5,208.39,266.83,208.39Z"/>
              <path class="cls-3" d="M1275.05,848.11c0,115.13,119.46,208.46,266.83,208.47,0-.03,0-.05,0-.08-.06-115.1-119.5-208.39-266.83-208.39Z"/>
              <path class="cls-2" d="M1541.88,1056.49s0,.05,0,.08c147.37,0,266.84-93.33,266.84-208.47h-.01c-147.34,0-266.78,93.29-266.83,208.39Z"/>
              <path class="cls-3" d="M1008.21,222.7h0c0,115.11,119.41,208.43,266.73,208.47.04,0,.07,0,.1,0,0-115.13-119.47-208.47-266.84-208.47Z"/>
              <path class="cls-3" d="M741.47,431.17s-.07,0-.1,0c0,115.13,119.47,208.46,266.84,208.46,0-115.11-119.41-208.42-266.73-208.46Z"/>
              <path class="cls-2" d="M1008.21,222.71h0c-147.37,0-266.84,93.33-266.84,208.46.03,0,.07,0,.1,0,147.32-.04,266.73-93.36,266.73-208.46Z"/>
              <g>
                <path class="cls-3" d="M1275.15,431.17s-.07,0-.1,0c0,115.13,119.47,208.45,266.83,208.46,0-.03,0-.05,0-.08-.06-115.07-119.44-208.34-266.73-208.38Z"/>
                <path class="cls-3" d="M1541.89,222.71s0,.05,0,.08c.06,115.07,119.44,208.34,266.73,208.38.04,0,.07,0,.1,0h.01c0-115.13-119.47-208.47-266.84-208.47h0Z"/>
                <path class="cls-2" d="M1808.61,431.17c-147.29.05-266.67,93.32-266.73,208.38,0,.03,0,.05,0,.08,147.37,0,266.83-93.33,266.84-208.46h-.01s-.07,0-.1,0Z"/>
                <path class="cls-2" d="M1541.88,222.79s0-.05,0-.08h0c-147.37,0-266.83,93.33-266.83,208.46.04,0,.07,0,.1,0,147.29-.04,266.67-93.31,266.73-208.38Z"/>
              </g>
              <path class="cls-2" d="M1275.05,431.18s-.07,0-.1,0c-147.32.05-266.73,93.36-266.73,208.46,147.37,0,266.83-93.33,266.84-208.46Z"/>
              <path class="cls-2" d="M1541.88,639.72s0-.05,0-.08c-147.37,0-266.83,93.34-266.83,208.47,147.34,0,266.78-93.29,266.83-208.39Z"/>
            </g>
            <g>
              <path class="cls-2" d="M1541.88,1473.44s0,.05,0,.07h0c147.37,0,266.83-93.33,266.84-208.46h-.01c-147.34,0-266.78,93.29-266.83,208.39Z"/>
              <path class="cls-3" d="M1008.21,1473.51h0c0,115.11,119.41,208.43,266.73,208.47.04,0,.07,0,.1,0,0-115.13-119.47-208.47-266.84-208.47Z"/>
              <path class="cls-2" d="M1275.05,1265.05c-147.37,0-266.83,93.33-266.84,208.46,147.37,0,266.83-93.33,266.84-208.46Z"/>
              <path class="cls-3" d="M741.47,1681.98s-.07,0-.1,0c0,115.13,119.47,208.46,266.84,208.46,0-115.11-119.41-208.42-266.73-208.46Z"/>
              <path class="cls-2" d="M1008.21,1473.52h0c-147.37,0-266.84,93.33-266.84,208.46.03,0,.07,0,.1,0,147.32-.04,266.73-93.36,266.73-208.46Z"/>
              <path class="cls-3" d="M1541.88,1056.67c.06,115.09,119.5,208.39,266.83,208.39h.01c0-115.14-119.47-208.48-266.84-208.48h0s0,.06,0,.09Z"/>
              <path class="cls-2" d="M1541.88,1056.67s0-.05,0-.08h0c-147.37,0-266.83,93.33-266.83,208.46h0c147.34,0,266.78-93.28,266.83-208.38Z"/>
              <g>
                <path class="cls-3" d="M1275.15,1681.98s-.07,0-.1,0c0,115.13,119.47,208.45,266.83,208.46,0-.03,0-.05,0-.08-.06-115.07-119.44-208.34-266.73-208.38Z"/>
                <path class="cls-3" d="M1541.89,1473.52s0,.05,0,.08c.06,115.07,119.44,208.34,266.73,208.38.04,0,.07,0,.1,0h.01c0-115.13-119.47-208.47-266.84-208.47h0Z"/>
                <path class="cls-2" d="M1808.61,1681.98c-147.29.04-266.67,93.32-266.73,208.38,0,.03,0,.05,0,.08,147.37,0,266.83-93.33,266.84-208.46h-.01s-.07,0-.1,0Z"/>
                <path class="cls-2" d="M1541.88,1473.6s0-.05,0-.08h0c-147.37,0-266.83,93.33-266.83,208.46.04,0,.07,0,.1,0,147.29-.04,266.67-93.31,266.73-208.38Z"/>
              </g>
              <path class="cls-3" d="M1275.05,1265.05c0,115.13,119.47,208.45,266.83,208.46,0-.03,0-.05,0-.07-.06-115.09-119.5-208.39-266.83-208.39Z"/>
              <path class="cls-2" d="M1275.05,1681.99s-.07,0-.1,0c-147.32.04-266.73,93.36-266.73,208.46,147.37,0,266.83-93.33,266.84-208.46Z"/>
            </g>
            <g>
              <path class="cls-3" d="M473.62,222.7c0,115.13,119.46,208.46,266.83,208.47,0-.03,0-.05,0-.08-.06-115.1-119.5-208.39-266.83-208.39Z"/>
              <path class="cls-2" d="M740.45,431.09s0,.05,0,.08c147.37,0,266.84-93.33,266.84-208.47h-.01c-147.34,0-266.78,93.29-266.83,208.39Z"/>
            </g>
            <g>
              <path class="cls-3" d="M206.78,1265.04c0,115.13,119.47,208.47,266.84,208.47,0-115.14-119.47-208.47-266.84-208.47Z"/>
              <path class="cls-2" d="M740.45,848.03s0,.05,0,.07h0c147.37,0,266.83-93.33,266.84-208.46h-.01c-147.34,0-266.78,93.29-266.83,208.39Z"/>
              <path class="cls-3" d="M1274.13,848.11c0-115.13-119.46-208.46-266.83-208.46,0,115.13,119.46,208.45,266.83,208.46Z"/>
              <path class="cls-3" d="M1007.39,1056.58s-.06,0-.09,0c0,115.13,119.46,208.45,266.83,208.46,0-115.11-119.41-208.42-266.74-208.46Z"/>
              <path class="cls-3" d="M1007.29,1473.51h.01c0-115.14-119.47-208.47-266.84-208.47,0,.03,0,.05,0,.08.06,115.1,119.5,208.39,266.83,208.39Z"/>
              <path class="cls-2" d="M1007.3,1473.51c147.37,0,266.83-93.34,266.83-208.47-147.37,0-266.83,93.34-266.83,208.47Z"/>
              <path class="cls-3" d="M473.62,1473.51c0,115.13,119.46,208.46,266.83,208.47,0-.03,0-.05,0-.08-.06-115.1-119.5-208.39-266.83-208.39Z"/>
              <path class="cls-2" d="M740.45,1681.9s0,.05,0,.08c147.37,0,266.84-93.33,266.84-208.47h-.01c-147.34,0-266.78,93.29-266.83,208.39Z"/>
              <path class="cls-3" d="M1274.13,848.12c0,115.11,119.41,208.42,266.74,208.46.03,0,.07,0,.1,0h.01c0-115.13-119.47-208.47-266.84-208.47h-.01Z"/>
              <path class="cls-2" d="M1540.86,1056.58c-147.32.04-266.74,93.36-266.74,208.46h.01c147.37,0,266.83-93.33,266.84-208.46h-.01s-.07,0-.1,0Z"/>
              <path class="cls-3" d="M206.78,848.11h0c0,115.11,119.41,208.43,266.73,208.47.04,0,.07,0,.1,0,0-115.13-119.47-208.47-266.84-208.47Z"/>
              <path class="cls-2" d="M473.62,639.65c-147.37,0-266.83,93.33-266.84,208.46,147.37,0,266.83-93.33,266.84-208.46Z"/>
              <path class="cls-3" d="M-59.95,1056.58s-.07,0-.1,0c0,115.13,119.47,208.46,266.84,208.46,0-115.11-119.41-208.42-266.73-208.46Z"/>
              <path class="cls-2" d="M206.78,848.12h0c-147.37,0-266.84,93.33-266.84,208.46.03,0,.07,0,.1,0,147.32-.04,266.73-93.36,266.73-208.46Z"/>
              <path class="cls-3" d="M740.45,431.26c.06,115.09,119.5,208.39,266.83,208.39h.01c0-115.14-119.47-208.48-266.84-208.48h0s0,.06,0,.09Z"/>
              <path class="cls-2" d="M740.45,431.26s0-.05,0-.08h0c-147.37,0-266.83,93.33-266.83,208.46h0c147.34,0,266.78-93.28,266.83-208.38Z"/>
              <g>
                <path class="cls-3" d="M473.72,1056.58s-.07,0-.1,0c0,115.13,119.47,208.45,266.83,208.46,0-.03,0-.05,0-.08-.06-115.07-119.44-208.34-266.73-208.38Z"/>
                <path class="cls-3" d="M740.46,848.12s0,.05,0,.08c.06,115.07,119.44,208.34,266.73,208.38.03,0,.07,0,.1,0h.01c0-115.13-119.47-208.47-266.84-208.47h0Z"/>
                <path class="cls-2" d="M1007.18,1056.58c-147.29.04-266.67,93.32-266.73,208.38,0,.03,0,.05,0,.08,147.37,0,266.83-93.33,266.84-208.46h-.01s-.07,0-.1,0Z"/>
                <path class="cls-2" d="M740.45,848.2s0-.05,0-.08h0c-147.37,0-266.83,93.33-266.83,208.46.04,0,.07,0,.1,0,147.29-.04,266.67-93.31,266.73-208.38Z"/>
              </g>
              <path class="cls-3" d="M473.62,639.65c0,115.13,119.47,208.45,266.83,208.46,0-.03,0-.05,0-.07-.06-115.09-119.5-208.39-266.83-208.39Z"/>
              <path class="cls-2" d="M473.62,1056.58s-.07,0-.1,0c-147.32.04-266.73,93.36-266.73,208.46,147.37,0,266.83-93.33,266.84-208.46Z"/>
              <path class="cls-2" d="M1007.39,1056.58c147.32-.04,266.74-93.36,266.74-208.46h0c-147.37,0-266.83,93.33-266.83,208.46h0s.06,0,.09,0Z"/>
              <path class="cls-2" d="M740.45,1265.12s0-.05,0-.08c-147.37,0-266.83,93.34-266.83,208.47,147.34,0,266.78-93.29,266.83-208.39Z"/>
            </g>
            <g>
              <path class="cls-3" d="M740.45,1682.07c.06,115.09,119.5,208.39,266.83,208.39h.01c0-115.14-119.47-208.48-266.84-208.48h0s0,.06,0,.09Z"/>
              <path class="cls-2" d="M740.45,1682.07s0-.05,0-.08h0c-147.37,0-266.83,93.33-266.83,208.46h0c147.34,0,266.78-93.28,266.83-208.38Z"/>
            </g>
            <g>
              <path class="cls-3" d="M205.96,431.17s-.06,0-.09,0c0,115.13,119.46,208.45,266.83,208.46,0-115.11-119.41-208.42-266.74-208.46Z"/>
              <path class="cls-3" d="M205.86,848.11h.01c0-115.13-119.47-208.47-266.84-208.47,0,.03,0,.05,0,.08.06,115.1,119.5,208.39,266.83,208.39Z"/>
              <path class="cls-2" d="M205.87,848.11c147.37,0,266.83-93.34,266.83-208.47-147.37,0-266.83,93.34-266.83,208.47Z"/>
              <path class="cls-2" d="M-60.97,1056.49s0,.05,0,.08c147.37,0,266.84-93.33,266.84-208.47h-.01c-147.34,0-266.78,93.29-266.83,208.39Z"/>
              <path class="cls-3" d="M472.7,222.71c0,115.11,119.41,208.42,266.74,208.46.03,0,.07,0,.1,0h.01c0-115.13-119.47-208.47-266.84-208.47h-.01Z"/>
              <path class="cls-2" d="M739.44,431.17c-147.32.05-266.74,93.36-266.74,208.46h.01c147.37,0,266.83-93.33,266.84-208.46h-.01s-.07,0-.1,0Z"/>
              <g>
                <path class="cls-3" d="M-60.97,222.71s0,.05,0,.08c.06,115.07,119.44,208.34,266.73,208.38.03,0,.07,0,.1,0h.01c0-115.13-119.47-208.47-266.84-208.47h0Z"/>
                <path class="cls-2" d="M205.76,431.17c-147.29.05-266.67,93.32-266.73,208.38,0,.03,0,.05,0,.08,147.37,0,266.83-93.33,266.84-208.46h-.01s-.07,0-.1,0Z"/>
              </g>
              <path class="cls-2" d="M205.96,431.17c147.32-.04,266.74-93.36,266.74-208.46h0c-147.37,0-266.83,93.33-266.83,208.46h0s.06,0,.09,0Z"/>
            </g>
            <g>
              <path class="cls-2" d="M-60.97,1473.44s0,.05,0,.07h0c147.37,0,266.83-93.33,266.84-208.46h-.01c-147.34,0-266.78,93.29-266.83,208.39Z"/>
              <path class="cls-3" d="M472.7,1473.51c0-115.13-119.46-208.46-266.83-208.46,0,115.13,119.46,208.45,266.83,208.46Z"/>
              <path class="cls-3" d="M205.96,1681.98s-.06,0-.09,0c0,115.13,119.46,208.45,266.83,208.46,0-115.11-119.41-208.42-266.74-208.46Z"/>
              <path class="cls-3" d="M472.7,1473.52c0,115.11,119.41,208.42,266.74,208.46.03,0,.07,0,.1,0h.01c0-115.13-119.47-208.47-266.84-208.47h-.01Z"/>
              <path class="cls-2" d="M739.44,1681.98c-147.32.04-266.74,93.36-266.74,208.46h.01c147.37,0,266.83-93.33,266.84-208.46h-.01s-.07,0-.1,0Z"/>
              <path class="cls-3" d="M-60.97,1056.67c.06,115.09,119.5,208.39,266.83,208.39h.01c0-115.14-119.47-208.48-266.84-208.48h0s0,.06,0,.09Z"/>
              <g>
                <path class="cls-3" d="M-60.97,1473.52s0,.05,0,.08c.06,115.07,119.44,208.34,266.73,208.38.03,0,.07,0,.1,0h.01c0-115.13-119.47-208.47-266.84-208.47h0Z"/>
                <path class="cls-2" d="M205.76,1681.98c-147.29.04-266.67,93.32-266.73,208.38,0,.03,0,.05,0,.08,147.37,0,266.83-93.33,266.84-208.46h-.01s-.07,0-.1,0Z"/>
              </g>
              <path class="cls-2" d="M205.96,1681.98c147.32-.04,266.74-93.36,266.74-208.46h0c-147.37,0-266.83,93.33-266.83,208.46h0s.06,0,.09,0Z"/>
            </g>
          </g>
        </g>
      </g>
      <path class="cls-14" d="M1493.86,2579.09c387.31-15.23,702.59-261,722.85-563.56,17.18-256.61-173.4-480.03-452.03-576.94-142.38-49.53-256.77-139.72-315.64-252.46-182.81-350.08-632.92-592.75-1152.29-573.12-606.55,22.93-1097.17,409.86-1121.19,883.91-26.69,526.55,511.79,959.98,1179.85,959.98,183.82,0,357.82-32.83,512.95-91.38,147.8,138.24,374.15,223.45,625.51,213.57Z"/>
    </g>
  </g>
  <g class="cls-10">
    <g class="cls-9">
      <g class="cls-11">
        <path class="cls-13" d="M-58.24,710.97c-21.46,16.76-31.19,39.16-29.41,61.1-28.08-1.39-56.75,6.21-78.21,22.98-21.46,16.76-31.19,39.16-29.41,61.1-28.08-1.39-56.75,6.21-78.21,22.98-39.62,30.95-39.62,81.14,0,112.1,21.46,16.76,50.13,24.37,78.21,22.98-1.78,21.94,7.95,44.33,29.41,61.1,21.46,16.76,50.13,24.37,78.21,22.98-1.78,21.93,7.95,44.33,29.41,61.1,39.62,30.96,103.86,30.96,143.49,0,21.46-16.76,31.19-39.16,29.41-61.1,28.08,1.39,56.75-6.21,78.21-22.98,21.46-16.76,31.19-39.16,29.41-61.1,28.08,1.39,56.75-6.21,78.21-22.98,39.62-30.96,39.62-81.14,0-112.1-21.46-16.76-50.13-24.37-78.21-22.98,1.78-21.94-7.95-44.34-29.41-61.1-21.46-16.76-50.13-24.37-78.21-22.98,1.78-21.94-7.95-44.33-29.41-61.1-39.62-30.95-103.86-30.95-143.49,0Z"/>
        <path class="cls-13" d="M-58.24,1302.01c-21.46,16.76-31.19,39.16-29.41,61.1-28.08-1.39-56.75,6.21-78.21,22.98-21.46,16.76-31.19,39.16-29.41,61.1-28.08-1.39-56.75,6.21-78.21,22.98-39.62,30.96-39.62,81.14,0,112.1,21.46,16.76,50.13,24.37,78.21,22.98-1.78,21.94,7.95,44.33,29.41,61.1,21.46,16.76,50.13,24.37,78.21,22.98-1.78,21.94,7.95,44.33,29.41,61.1,39.62,30.95,103.86,30.95,143.49,0,21.46-16.76,31.19-39.16,29.41-61.1,28.08,1.39,56.75-6.21,78.21-22.98,21.46-16.76,31.19-39.16,29.41-61.1,28.08,1.39,56.75-6.21,78.21-22.98,39.62-30.95,39.62-81.14,0-112.1-21.46-16.76-50.13-24.37-78.21-22.98,1.78-21.94-7.95-44.33-29.41-61.1-21.46-16.76-50.13-24.37-78.21-22.98,1.78-21.93-7.95-44.33-29.41-61.1-39.62-30.95-103.86-30.95-143.49,0Z"/>
      </g>
    </g>
  </g>
</svg>